<mxfile host="65bd71144e">
    <diagram id="23-P_jXx2l_n5m7NvGiq" name="Page-1">
        <mxGraphModel dx="1184" dy="625" grid="1" gridSize="10" guides="1" tooltips="1" connect="1" arrows="1" fold="1" page="1" pageScale="1" pageWidth="1920" pageHeight="1200" math="0" shadow="0">
            <root>
                <mxCell id="0"/>
                <mxCell id="1" parent="0"/>
                <mxCell id="6IGV_KWASFzJ5lWBxESU-285" value="" style="rounded=0;whiteSpace=wrap;html=1;strokeWidth=2;labelBackgroundColor=#ffffff;" parent="1" vertex="1">
                    <mxGeometry x="40" y="360" width="360" height="210" as="geometry"/>
                </mxCell>
                <mxCell id="6IGV_KWASFzJ5lWBxESU-231" value="" style="rounded=0;whiteSpace=wrap;html=1;strokeWidth=2;labelBackgroundColor=#ffffff;" parent="1" vertex="1">
                    <mxGeometry x="120" y="580" width="305" height="265" as="geometry"/>
                </mxCell>
                <mxCell id="6IGV_KWASFzJ5lWBxESU-65" value="" style="rounded=0;whiteSpace=wrap;html=1;strokeWidth=2;fontStyle=1" parent="1" vertex="1">
                    <mxGeometry x="40" y="40" width="820" height="310" as="geometry"/>
                </mxCell>
                <mxCell id="6IGV_KWASFzJ5lWBxESU-85" style="edgeStyle=orthogonalEdgeStyle;rounded=0;orthogonalLoop=1;jettySize=auto;html=1;exitX=0.5;exitY=1;exitDx=0;exitDy=0;entryX=0.485;entryY=0.326;entryDx=0;entryDy=0;entryPerimeter=0;" parent="1" source="6IGV_KWASFzJ5lWBxESU-68" target="6IGV_KWASFzJ5lWBxESU-82" edge="1">
                    <mxGeometry relative="1" as="geometry"/>
                </mxCell>
                <mxCell id="6IGV_KWASFzJ5lWBxESU-68" value="start" style="rounded=1;whiteSpace=wrap;html=1;fillColor=#fff2cc;strokeColor=#d6b656;fontColor=#1A1A1A;" parent="1" vertex="1">
                    <mxGeometry x="50" y="90" width="70" height="30" as="geometry"/>
                </mxCell>
                <mxCell id="6IGV_KWASFzJ5lWBxESU-69" value="Register &lt;font style=&quot;font-size: 13px&quot;&gt;(user - officeManager)&lt;/font&gt;" style="text;strokeColor=none;fillColor=none;html=1;fontSize=24;fontStyle=1;verticalAlign=middle;align=left;" parent="1" vertex="1">
                    <mxGeometry x="50" y="40" width="345" height="40" as="geometry"/>
                </mxCell>
                <mxCell id="6IGV_KWASFzJ5lWBxESU-95" style="edgeStyle=orthogonalEdgeStyle;rounded=0;orthogonalLoop=1;jettySize=auto;html=1;exitX=0.5;exitY=1;exitDx=0;exitDy=0;entryX=0;entryY=0.75;entryDx=0;entryDy=0;" parent="1" source="6IGV_KWASFzJ5lWBxESU-70" target="6IGV_KWASFzJ5lWBxESU-94" edge="1">
                    <mxGeometry relative="1" as="geometry"/>
                </mxCell>
                <mxCell id="6IGV_KWASFzJ5lWBxESU-96" value="YES" style="edgeLabel;html=1;align=center;verticalAlign=middle;resizable=0;points=[];" parent="6IGV_KWASFzJ5lWBxESU-95" vertex="1" connectable="0">
                    <mxGeometry x="-0.6202" relative="1" as="geometry">
                        <mxPoint as="offset"/>
                    </mxGeometry>
                </mxCell>
                <mxCell id="6IGV_KWASFzJ5lWBxESU-111" style="edgeStyle=orthogonalEdgeStyle;rounded=0;orthogonalLoop=1;jettySize=auto;html=1;exitX=1;exitY=0.5;exitDx=0;exitDy=0;entryX=0;entryY=0.5;entryDx=0;entryDy=0;entryPerimeter=0;" parent="1" source="6IGV_KWASFzJ5lWBxESU-70" target="6IGV_KWASFzJ5lWBxESU-88" edge="1">
                    <mxGeometry relative="1" as="geometry"/>
                </mxCell>
                <mxCell id="6IGV_KWASFzJ5lWBxESU-112" value="NO" style="edgeLabel;html=1;align=center;verticalAlign=middle;resizable=0;points=[];" parent="6IGV_KWASFzJ5lWBxESU-111" vertex="1" connectable="0">
                    <mxGeometry x="-0.5865" y="-1" relative="1" as="geometry">
                        <mxPoint x="-105.43" y="-1.01" as="offset"/>
                    </mxGeometry>
                </mxCell>
                <mxCell id="6IGV_KWASFzJ5lWBxESU-70" value="&lt;p style=&quot;line-height: 100%&quot;&gt;&lt;font style=&quot;font-size: 9px&quot;&gt;is agency?&lt;/font&gt;&lt;/p&gt;" style="rhombus;whiteSpace=wrap;html=1;" parent="1" vertex="1">
                    <mxGeometry x="55" y="200" width="55" height="60" as="geometry"/>
                </mxCell>
                <mxCell id="6IGV_KWASFzJ5lWBxESU-162" style="edgeStyle=orthogonalEdgeStyle;rounded=0;orthogonalLoop=1;jettySize=auto;html=1;exitX=1;exitY=0.5;exitDx=0;exitDy=0;entryX=0;entryY=0.5;entryDx=0;entryDy=0;dashed=1;" parent="1" source="6IGV_KWASFzJ5lWBxESU-80" target="6IGV_KWASFzJ5lWBxESU-116" edge="1">
                    <mxGeometry relative="1" as="geometry"/>
                </mxCell>
                <mxCell id="6IGV_KWASFzJ5lWBxESU-80" value="&lt;pre style=&quot;font-size: 6px&quot;&gt;&lt;font style=&quot;font-size: 6px ; line-height: 80%&quot;&gt;user_id = xxxx&lt;br&gt;&lt;/font&gt;&lt;font style=&quot;font-size: 6px ; line-height: 80%&quot;&gt;is_agency = False&lt;br&gt;&lt;/font&gt;&lt;font style=&quot;font-size: 6px ; line-height: 80%&quot;&gt;agency_id = Null&lt;/font&gt;&lt;/pre&gt;" style="shape=datastore;whiteSpace=wrap;html=1;align=left;" parent="1" vertex="1">
                    <mxGeometry x="510" y="120" width="70" height="60" as="geometry"/>
                </mxCell>
                <mxCell id="6IGV_KWASFzJ5lWBxESU-86" style="edgeStyle=orthogonalEdgeStyle;rounded=0;orthogonalLoop=1;jettySize=auto;html=1;exitX=0.5;exitY=1;exitDx=0;exitDy=0;entryX=0.5;entryY=0;entryDx=0;entryDy=0;" parent="1" source="6IGV_KWASFzJ5lWBxESU-82" target="6IGV_KWASFzJ5lWBxESU-70" edge="1">
                    <mxGeometry relative="1" as="geometry"/>
                </mxCell>
                <mxCell id="6IGV_KWASFzJ5lWBxESU-82" value="&lt;font style=&quot;font-size: 9px&quot;&gt;&lt;br&gt;Basic info&lt;/font&gt;" style="shape=manualInput;whiteSpace=wrap;html=1;fillColor=#e1d5e7;strokeColor=#9673a6;fontColor=#1A1A1A;" parent="1" vertex="1">
                    <mxGeometry x="52.5" y="135" width="65" height="50" as="geometry"/>
                </mxCell>
                <mxCell id="6IGV_KWASFzJ5lWBxESU-113" style="edgeStyle=orthogonalEdgeStyle;rounded=0;orthogonalLoop=1;jettySize=auto;html=1;exitX=1;exitY=0.5;exitDx=0;exitDy=0;exitPerimeter=0;dashed=1;" parent="1" source="6IGV_KWASFzJ5lWBxESU-88" target="6IGV_KWASFzJ5lWBxESU-90" edge="1">
                    <mxGeometry relative="1" as="geometry"/>
                </mxCell>
                <mxCell id="6IGV_KWASFzJ5lWBxESU-219" style="edgeStyle=orthogonalEdgeStyle;rounded=0;orthogonalLoop=1;jettySize=auto;html=1;exitX=0.5;exitY=1;exitDx=0;exitDy=0;entryX=0.5;entryY=0;entryDx=0;entryDy=0;strokeColor=#FFFFFF;labelBackgroundColor=#FFFFFF;fontColor=default;fillColor=#f9f7ed;" parent="1" source="6IGV_KWASFzJ5lWBxESU-90" target="6IGV_KWASFzJ5lWBxESU-218" edge="1">
                    <mxGeometry relative="1" as="geometry"/>
                </mxCell>
                <mxCell id="6IGV_KWASFzJ5lWBxESU-90" value="END" style="rounded=1;whiteSpace=wrap;html=1;fillColor=#fff2cc;strokeColor=#d6b656;fontColor=#000000;" parent="1" vertex="1">
                    <mxGeometry x="777.5" y="215" width="70" height="30" as="geometry"/>
                </mxCell>
                <mxCell id="6IGV_KWASFzJ5lWBxESU-149" style="edgeStyle=orthogonalEdgeStyle;rounded=0;orthogonalLoop=1;jettySize=auto;html=1;exitX=1;exitY=0.5;exitDx=0;exitDy=0;entryX=0;entryY=0.5;entryDx=0;entryDy=0;" parent="1" source="6IGV_KWASFzJ5lWBxESU-94" target="6IGV_KWASFzJ5lWBxESU-120" edge="1">
                    <mxGeometry relative="1" as="geometry"/>
                </mxCell>
                <mxCell id="6IGV_KWASFzJ5lWBxESU-94" value="&lt;font style=&quot;font-size: 10px&quot;&gt;&lt;br&gt;&lt;br&gt;&lt;br&gt;Agency Info&lt;br&gt;&lt;br&gt;&lt;/font&gt;" style="shape=manualInput;whiteSpace=wrap;html=1;fillColor=#e1d5e7;strokeColor=#9673a6;fontColor=#141414;" parent="1" vertex="1">
                    <mxGeometry x="115" y="270" width="65" height="50" as="geometry"/>
                </mxCell>
                <mxCell id="6IGV_KWASFzJ5lWBxESU-130" style="edgeStyle=orthogonalEdgeStyle;rounded=0;orthogonalLoop=1;jettySize=auto;html=1;exitX=1;exitY=0.5;exitDx=0;exitDy=0;entryX=0;entryY=0.5;entryDx=0;entryDy=0;" parent="1" source="6IGV_KWASFzJ5lWBxESU-153" target="6IGV_KWASFzJ5lWBxESU-128" edge="1">
                    <mxGeometry relative="1" as="geometry"/>
                </mxCell>
                <mxCell id="6IGV_KWASFzJ5lWBxESU-103" value="&lt;pre style=&quot;font-size: 6px&quot;&gt;&lt;pre&gt;&lt;pre&gt;&lt;span&gt;is_licensed = False&lt;/span&gt;&lt;/pre&gt;&lt;pre&gt;&lt;span&gt;agency_id = Null&lt;/span&gt;&lt;/pre&gt;&lt;pre&gt;&lt;span&gt;is_agency = True&lt;/span&gt;&lt;/pre&gt;&lt;pre&gt;&lt;span&gt;I/license = xxxx&lt;br&gt;&lt;/span&gt;&lt;/pre&gt;&lt;/pre&gt;&lt;/pre&gt;" style="shape=datastore;whiteSpace=wrap;html=1;align=left;" parent="1" vertex="1">
                    <mxGeometry x="260" y="250" width="80" height="90" as="geometry"/>
                </mxCell>
                <mxCell id="6IGV_KWASFzJ5lWBxESU-116" value="&lt;span style=&quot;font-size: 8px ; text-align: left&quot;&gt;new user with unique ID&lt;/span&gt;" style="rounded=1;whiteSpace=wrap;html=1;fillColor=#fff2cc;strokeColor=#d6b656;fontColor=#141414;" parent="1" vertex="1">
                    <mxGeometry x="630" y="135" width="60" height="30" as="geometry"/>
                </mxCell>
                <mxCell id="6IGV_KWASFzJ5lWBxESU-118" value="&lt;font style=&quot;font-size: 10px&quot;&gt;store&lt;/font&gt;" style="rounded=0;whiteSpace=wrap;html=1;fillColor=#dae8fc;strokeColor=#6c8ebf;fontColor=#141414;" parent="1" vertex="1">
                    <mxGeometry x="140" y="150" width="40" height="20" as="geometry"/>
                </mxCell>
                <mxCell id="6IGV_KWASFzJ5lWBxESU-119" style="edgeStyle=orthogonalEdgeStyle;rounded=0;orthogonalLoop=1;jettySize=auto;html=1;exitX=1;exitY=0.5;exitDx=0;exitDy=0;entryX=0;entryY=0.5;entryDx=0;entryDy=0;" parent="1" source="6IGV_KWASFzJ5lWBxESU-82" target="6IGV_KWASFzJ5lWBxESU-118" edge="1">
                    <mxGeometry relative="1" as="geometry">
                        <mxPoint x="117.5" y="160" as="sourcePoint"/>
                        <mxPoint x="200" y="160" as="targetPoint"/>
                    </mxGeometry>
                </mxCell>
                <mxCell id="6IGV_KWASFzJ5lWBxESU-158" style="edgeStyle=orthogonalEdgeStyle;rounded=0;orthogonalLoop=1;jettySize=auto;html=1;exitX=1;exitY=0.5;exitDx=0;exitDy=0;entryX=0;entryY=0.5;entryDx=0;entryDy=0;" parent="1" source="6IGV_KWASFzJ5lWBxESU-120" target="6IGV_KWASFzJ5lWBxESU-103" edge="1">
                    <mxGeometry relative="1" as="geometry"/>
                </mxCell>
                <mxCell id="6IGV_KWASFzJ5lWBxESU-120" value="&lt;font style=&quot;font-size: 10px&quot;&gt;store&lt;/font&gt;" style="rounded=0;whiteSpace=wrap;html=1;fillColor=#dae8fc;strokeColor=#6c8ebf;fontColor=#141414;" parent="1" vertex="1">
                    <mxGeometry x="200" y="285" width="40" height="20" as="geometry"/>
                </mxCell>
                <mxCell id="6IGV_KWASFzJ5lWBxESU-138" style="edgeStyle=orthogonalEdgeStyle;rounded=0;orthogonalLoop=1;jettySize=auto;html=1;exitX=1;exitY=0.5;exitDx=0;exitDy=0;entryX=0;entryY=0.5;entryDx=0;entryDy=0;" parent="1" source="6IGV_KWASFzJ5lWBxESU-128" target="6IGV_KWASFzJ5lWBxESU-135" edge="1">
                    <mxGeometry relative="1" as="geometry"/>
                </mxCell>
                <mxCell id="6IGV_KWASFzJ5lWBxESU-139" value="YES" style="edgeLabel;html=1;align=center;verticalAlign=middle;resizable=0;points=[];" parent="6IGV_KWASFzJ5lWBxESU-138" vertex="1" connectable="0">
                    <mxGeometry x="-0.1936" relative="1" as="geometry">
                        <mxPoint as="offset"/>
                    </mxGeometry>
                </mxCell>
                <mxCell id="6IGV_KWASFzJ5lWBxESU-143" style="edgeStyle=orthogonalEdgeStyle;rounded=0;orthogonalLoop=1;jettySize=auto;html=1;exitX=0.5;exitY=0;exitDx=0;exitDy=0;entryX=0;entryY=0.5;entryDx=0;entryDy=0;entryPerimeter=0;" parent="1" source="6IGV_KWASFzJ5lWBxESU-128" target="6IGV_KWASFzJ5lWBxESU-141" edge="1">
                    <mxGeometry relative="1" as="geometry"/>
                </mxCell>
                <mxCell id="6IGV_KWASFzJ5lWBxESU-144" value="NO" style="edgeLabel;html=1;align=center;verticalAlign=middle;resizable=0;points=[];" parent="6IGV_KWASFzJ5lWBxESU-143" vertex="1" connectable="0">
                    <mxGeometry x="0.1032" y="-2" relative="1" as="geometry">
                        <mxPoint x="-28.490000000000002" y="13" as="offset"/>
                    </mxGeometry>
                </mxCell>
                <mxCell id="6IGV_KWASFzJ5lWBxESU-128" value="&lt;p style=&quot;line-height: 110% ; font-size: 8px&quot;&gt;&lt;font style=&quot;font-size: 8px&quot;&gt;is &quot;verify&quot; outputs&lt;/font&gt;&lt;/p&gt;&lt;p style=&quot;line-height: 0% ; font-size: 8px&quot;&gt;&lt;font style=&quot;font-size: 8px&quot;&gt;is TRUE ?&lt;/font&gt;&lt;/p&gt;" style="rhombus;whiteSpace=wrap;html=1;" parent="1" vertex="1">
                    <mxGeometry x="440" y="265" width="90" height="60" as="geometry"/>
                </mxCell>
                <mxCell id="6IGV_KWASFzJ5lWBxESU-152" style="edgeStyle=orthogonalEdgeStyle;rounded=0;orthogonalLoop=1;jettySize=auto;html=1;exitX=1;exitY=0.5;exitDx=0;exitDy=0;entryX=0.5;entryY=1;entryDx=0;entryDy=0;" parent="1" source="6IGV_KWASFzJ5lWBxESU-135" target="6IGV_KWASFzJ5lWBxESU-146" edge="1">
                    <mxGeometry relative="1" as="geometry"/>
                </mxCell>
                <mxCell id="6IGV_KWASFzJ5lWBxESU-135" value="&lt;pre style=&quot;font-size: 6px&quot;&gt;&lt;pre&gt;&lt;pre&gt;is_licensed = True&lt;/pre&gt;&lt;pre&gt;agency_id = xxxx&lt;/pre&gt;&lt;/pre&gt;&lt;/pre&gt;" style="shape=datastore;whiteSpace=wrap;html=1;align=left;" parent="1" vertex="1">
                    <mxGeometry x="580" y="265" width="70" height="60" as="geometry"/>
                </mxCell>
                <mxCell id="6IGV_KWASFzJ5lWBxESU-157" style="edgeStyle=orthogonalEdgeStyle;rounded=0;orthogonalLoop=1;jettySize=auto;html=1;exitX=1;exitY=0.5;exitDx=0;exitDy=0;exitPerimeter=0;entryX=0;entryY=0.5;entryDx=0;entryDy=0;dashed=1;" parent="1" source="6IGV_KWASFzJ5lWBxESU-141" target="6IGV_KWASFzJ5lWBxESU-90" edge="1">
                    <mxGeometry relative="1" as="geometry"/>
                </mxCell>
                <mxCell id="6IGV_KWASFzJ5lWBxESU-141" value="&lt;p style=&quot;line-height: 70%&quot;&gt;&lt;/p&gt;&lt;div style=&quot;font-size: 9px&quot;&gt;&lt;font style=&quot;line-height: 90% ; font-size: 9px&quot;&gt;successful reg,&lt;/font&gt;&lt;/div&gt;&lt;div style=&quot;font-size: 9px&quot;&gt;&lt;font style=&quot;line-height: 90% ; font-size: 9px&quot;&gt;but you can't get to Dashboard&lt;/font&gt;&lt;/div&gt;&lt;p&gt;&lt;/p&gt;" style="shape=display;whiteSpace=wrap;html=1;align=center;size=0.25;fillColor=#d5e8d4;strokeColor=#82b366;fontStyle=1;fontColor=#000000;" parent="1" vertex="1">
                    <mxGeometry x="555" y="210" width="100" height="40" as="geometry"/>
                </mxCell>
                <mxCell id="6IGV_KWASFzJ5lWBxESU-156" style="edgeStyle=orthogonalEdgeStyle;rounded=0;orthogonalLoop=1;jettySize=auto;html=1;exitX=0.5;exitY=0;exitDx=0;exitDy=0;entryX=0;entryY=0.5;entryDx=0;entryDy=0;entryPerimeter=0;" parent="1" source="6IGV_KWASFzJ5lWBxESU-146" target="6IGV_KWASFzJ5lWBxESU-88" edge="1">
                    <mxGeometry relative="1" as="geometry"/>
                </mxCell>
                <mxCell id="6IGV_KWASFzJ5lWBxESU-146" value="&lt;span style=&quot;font-size: 8px ; text-align: left&quot;&gt;new agency with unique ID&lt;/span&gt;" style="rounded=1;whiteSpace=wrap;html=1;fillColor=#fff2cc;strokeColor=#d6b656;fontColor=#000000;" parent="1" vertex="1">
                    <mxGeometry x="655" y="245" width="70" height="30" as="geometry"/>
                </mxCell>
                <mxCell id="6IGV_KWASFzJ5lWBxESU-153" value="&lt;font style=&quot;font-size: 10px&quot;&gt;verify&lt;br&gt;License&lt;br&gt;&lt;/font&gt;" style="rounded=0;whiteSpace=wrap;html=1;fillColor=#dae8fc;strokeColor=#6c8ebf;fontColor=#000000;" parent="1" vertex="1">
                    <mxGeometry x="380" y="277.5" width="40" height="35" as="geometry"/>
                </mxCell>
                <mxCell id="6IGV_KWASFzJ5lWBxESU-154" style="edgeStyle=orthogonalEdgeStyle;rounded=0;orthogonalLoop=1;jettySize=auto;html=1;exitX=1;exitY=0.5;exitDx=0;exitDy=0;entryX=0;entryY=0.5;entryDx=0;entryDy=0;" parent="1" source="6IGV_KWASFzJ5lWBxESU-103" target="6IGV_KWASFzJ5lWBxESU-153" edge="1">
                    <mxGeometry relative="1" as="geometry">
                        <mxPoint x="330" y="300" as="sourcePoint"/>
                        <mxPoint x="410" y="300" as="targetPoint"/>
                    </mxGeometry>
                </mxCell>
                <mxCell id="6IGV_KWASFzJ5lWBxESU-88" value="&lt;font style=&quot;font-size: 7px ; line-height: 90%&quot;&gt;Successful Registration&lt;/font&gt;" style="shape=display;whiteSpace=wrap;html=1;align=center;size=0.25;fillColor=#d5e8d4;strokeColor=#82b366;fontStyle=1;fontColor=#000000;" parent="1" vertex="1">
                    <mxGeometry x="720" y="180" width="70" height="30" as="geometry"/>
                </mxCell>
                <mxCell id="6IGV_KWASFzJ5lWBxESU-207" style="edgeStyle=orthogonalEdgeStyle;rounded=0;orthogonalLoop=1;jettySize=auto;html=1;exitX=1;exitY=0.5;exitDx=0;exitDy=0;entryX=0;entryY=0.75;entryDx=0;entryDy=0;" parent="1" source="6IGV_KWASFzJ5lWBxESU-131" target="6IGV_KWASFzJ5lWBxESU-201" edge="1">
                    <mxGeometry relative="1" as="geometry">
                        <Array as="points">
                            <mxPoint x="250" y="162"/>
                            <mxPoint x="270" y="162"/>
                        </Array>
                    </mxGeometry>
                </mxCell>
                <mxCell id="6IGV_KWASFzJ5lWBxESU-131" value="&lt;font style=&quot;font-size: 10px&quot;&gt;verify&lt;br&gt;phone&lt;br&gt;&lt;/font&gt;" style="rounded=0;whiteSpace=wrap;html=1;fillColor=#dae8fc;strokeColor=#6c8ebf;fontColor=#141414;" parent="1" vertex="1">
                    <mxGeometry x="210" y="145" width="40" height="30" as="geometry"/>
                </mxCell>
                <mxCell id="6IGV_KWASFzJ5lWBxESU-161" style="edgeStyle=orthogonalEdgeStyle;rounded=0;orthogonalLoop=1;jettySize=auto;html=1;exitX=1;exitY=0.5;exitDx=0;exitDy=0;entryX=0;entryY=0.5;entryDx=0;entryDy=0;" parent="1" source="6IGV_KWASFzJ5lWBxESU-118" target="6IGV_KWASFzJ5lWBxESU-131" edge="1">
                    <mxGeometry relative="1" as="geometry">
                        <mxPoint x="180" y="160" as="sourcePoint"/>
                        <mxPoint x="265" y="160" as="targetPoint"/>
                    </mxGeometry>
                </mxCell>
                <mxCell id="6IGV_KWASFzJ5lWBxESU-163" value="start point - main interface" style="rounded=1;whiteSpace=wrap;html=1;fillColor=#fff2cc;strokeColor=#d6b656;" parent="1" vertex="1">
                    <mxGeometry x="40" y="580" width="66.25" height="800" as="geometry"/>
                </mxCell>
                <mxCell id="6IGV_KWASFzJ5lWBxESU-192" style="edgeStyle=orthogonalEdgeStyle;rounded=0;orthogonalLoop=1;jettySize=auto;html=1;exitX=0.5;exitY=1;exitDx=0;exitDy=0;entryX=0.5;entryY=0;entryDx=0;entryDy=0;" parent="1" source="6IGV_KWASFzJ5lWBxESU-168" target="6IGV_KWASFzJ5lWBxESU-189" edge="1">
                    <mxGeometry relative="1" as="geometry"/>
                </mxCell>
                <mxCell id="6IGV_KWASFzJ5lWBxESU-193" value="YES" style="edgeLabel;html=1;align=center;verticalAlign=middle;resizable=0;points=[];" parent="6IGV_KWASFzJ5lWBxESU-192" vertex="1" connectable="0">
                    <mxGeometry x="-0.2396" relative="1" as="geometry">
                        <mxPoint as="offset"/>
                    </mxGeometry>
                </mxCell>
                <mxCell id="6IGV_KWASFzJ5lWBxESU-223" style="edgeStyle=orthogonalEdgeStyle;rounded=0;orthogonalLoop=1;jettySize=auto;html=1;exitX=1;exitY=0.5;exitDx=0;exitDy=0;entryX=0;entryY=0.5;entryDx=0;entryDy=0;strokeColor=#000000;" parent="1" source="6IGV_KWASFzJ5lWBxESU-168" target="OyvEmyEKFf86o9_L2irY-4" edge="1">
                    <mxGeometry relative="1" as="geometry">
                        <mxPoint x="260" y="650" as="targetPoint"/>
                    </mxGeometry>
                </mxCell>
                <mxCell id="6IGV_KWASFzJ5lWBxESU-224" value="NO" style="edgeLabel;html=1;align=center;verticalAlign=middle;resizable=0;points=[];" parent="6IGV_KWASFzJ5lWBxESU-223" vertex="1" connectable="0">
                    <mxGeometry x="-0.1046" relative="1" as="geometry">
                        <mxPoint as="offset"/>
                    </mxGeometry>
                </mxCell>
                <mxCell id="6IGV_KWASFzJ5lWBxESU-168" value="&lt;pre style=&quot;line-height: 100%&quot;&gt;&lt;font style=&quot;font-size: 6px&quot;&gt;is_agency == True&lt;/font&gt;&lt;/pre&gt;" style="rhombus;whiteSpace=wrap;html=1;" parent="1" vertex="1">
                    <mxGeometry x="137.5" y="620" width="80" height="60" as="geometry"/>
                </mxCell>
                <mxCell id="6IGV_KWASFzJ5lWBxESU-171" value="" style="rounded=0;whiteSpace=wrap;html=1;strokeWidth=2;" parent="1" vertex="1">
                    <mxGeometry x="440" y="360" width="390" height="290" as="geometry"/>
                </mxCell>
                <mxCell id="6IGV_KWASFzJ5lWBxESU-243" style="edgeStyle=orthogonalEdgeStyle;rounded=0;orthogonalLoop=1;jettySize=auto;html=1;exitX=1;exitY=0.5;exitDx=0;exitDy=0;entryX=0.75;entryY=1;entryDx=0;entryDy=0;labelBackgroundColor=#CCE5FF;strokeColor=#000000;" parent="1" source="6IGV_KWASFzJ5lWBxESU-174" target="6IGV_KWASFzJ5lWBxESU-153" edge="1">
                    <mxGeometry relative="1" as="geometry">
                        <Array as="points">
                            <mxPoint x="410" y="665"/>
                            <mxPoint x="410" y="313"/>
                        </Array>
                    </mxGeometry>
                </mxCell>
                <mxCell id="6IGV_KWASFzJ5lWBxESU-174" value="&lt;font style=&quot;font-size: 10px&quot;&gt;&lt;br&gt;&lt;br&gt;License ID&lt;br&gt;&lt;/font&gt;" style="shape=manualInput;whiteSpace=wrap;html=1;fillColor=#e1d5e7;strokeColor=#9673a6;" parent="1" vertex="1">
                    <mxGeometry x="325" y="640" width="65" height="50" as="geometry"/>
                </mxCell>
                <mxCell id="6IGV_KWASFzJ5lWBxESU-220" style="edgeStyle=orthogonalEdgeStyle;rounded=0;orthogonalLoop=1;jettySize=auto;html=1;exitX=0.5;exitY=1;exitDx=0;exitDy=0;entryX=0.5;entryY=0;entryDx=0;entryDy=0;strokeColor=#000000;" parent="1" source="6IGV_KWASFzJ5lWBxESU-189" target="6IGV_KWASFzJ5lWBxESU-196" edge="1">
                    <mxGeometry relative="1" as="geometry"/>
                </mxCell>
                <mxCell id="6IGV_KWASFzJ5lWBxESU-189" value="&lt;span style=&quot;font-size: 10px&quot;&gt;Show &quot;Agency Dashboard&quot; Button&lt;/span&gt;" style="rounded=0;whiteSpace=wrap;html=1;fillColor=#dae8fc;strokeColor=#6c8ebf;" parent="1" vertex="1">
                    <mxGeometry x="130" y="720" width="95" height="40" as="geometry"/>
                </mxCell>
                <mxCell id="6IGV_KWASFzJ5lWBxESU-225" style="edgeStyle=orthogonalEdgeStyle;rounded=0;orthogonalLoop=1;jettySize=auto;html=1;exitX=1;exitY=0.5;exitDx=0;exitDy=0;entryX=-0.029;entryY=0.494;entryDx=0;entryDy=0;entryPerimeter=0;strokeColor=#000000;" parent="1" source="6IGV_KWASFzJ5lWBxESU-196" target="6IGV_KWASFzJ5lWBxESU-221" edge="1">
                    <mxGeometry relative="1" as="geometry"/>
                </mxCell>
                <mxCell id="6IGV_KWASFzJ5lWBxESU-196" value="on click" style="ellipse;whiteSpace=wrap;html=1;fillColor=#e1d5e7;strokeColor=#9673a6;" parent="1" vertex="1">
                    <mxGeometry x="150" y="790" width="55" height="30" as="geometry"/>
                </mxCell>
                <mxCell id="6IGV_KWASFzJ5lWBxESU-199" value="&lt;font style=&quot;font-size: 18px&quot;&gt;Show AD Button &lt;/font&gt;&lt;font style=&quot;font-size: 8px&quot;&gt;(user - manager)&lt;/font&gt;" style="text;strokeColor=none;fillColor=none;html=1;fontSize=24;fontStyle=1;verticalAlign=middle;align=left;" parent="1" vertex="1">
                    <mxGeometry x="128.75" y="575" width="342.5" height="40" as="geometry"/>
                </mxCell>
                <mxCell id="6IGV_KWASFzJ5lWBxESU-209" style="edgeStyle=orthogonalEdgeStyle;rounded=0;orthogonalLoop=1;jettySize=auto;html=1;exitX=1;exitY=0.5;exitDx=0;exitDy=0;entryX=0;entryY=0.5;entryDx=0;entryDy=0;" parent="1" source="6IGV_KWASFzJ5lWBxESU-201" target="6IGV_KWASFzJ5lWBxESU-208" edge="1">
                    <mxGeometry relative="1" as="geometry"/>
                </mxCell>
                <mxCell id="6IGV_KWASFzJ5lWBxESU-201" value="&lt;br&gt;verifying code" style="shape=manualInput;whiteSpace=wrap;html=1;fillColor=#e1d5e7;strokeColor=#9673a6;fontColor=#141414;" parent="1" vertex="1">
                    <mxGeometry x="290" y="125" width="65" height="50" as="geometry"/>
                </mxCell>
                <mxCell id="6IGV_KWASFzJ5lWBxESU-210" style="edgeStyle=orthogonalEdgeStyle;rounded=0;orthogonalLoop=1;jettySize=auto;html=1;exitX=1;exitY=0.5;exitDx=0;exitDy=0;entryX=0;entryY=0.5;entryDx=0;entryDy=0;" parent="1" source="6IGV_KWASFzJ5lWBxESU-208" target="6IGV_KWASFzJ5lWBxESU-80" edge="1">
                    <mxGeometry relative="1" as="geometry"/>
                </mxCell>
                <mxCell id="6IGV_KWASFzJ5lWBxESU-211" value="YES" style="edgeLabel;html=1;align=center;verticalAlign=middle;resizable=0;points=[];" parent="6IGV_KWASFzJ5lWBxESU-210" vertex="1" connectable="0">
                    <mxGeometry x="-0.219" relative="1" as="geometry">
                        <mxPoint as="offset"/>
                    </mxGeometry>
                </mxCell>
                <mxCell id="6IGV_KWASFzJ5lWBxESU-212" style="edgeStyle=orthogonalEdgeStyle;rounded=0;orthogonalLoop=1;jettySize=auto;html=1;exitX=0.5;exitY=0;exitDx=0;exitDy=0;entryX=0.5;entryY=0;entryDx=0;entryDy=0;" parent="1" source="6IGV_KWASFzJ5lWBxESU-208" target="6IGV_KWASFzJ5lWBxESU-131" edge="1">
                    <mxGeometry relative="1" as="geometry">
                        <Array as="points">
                            <mxPoint x="410" y="90"/>
                            <mxPoint x="230" y="90"/>
                        </Array>
                    </mxGeometry>
                </mxCell>
                <mxCell id="6IGV_KWASFzJ5lWBxESU-213" value="NO" style="edgeLabel;html=1;align=center;verticalAlign=middle;resizable=0;points=[];" parent="6IGV_KWASFzJ5lWBxESU-212" vertex="1" connectable="0">
                    <mxGeometry x="-0.5249" y="1" relative="1" as="geometry">
                        <mxPoint x="33.02" y="14" as="offset"/>
                    </mxGeometry>
                </mxCell>
                <mxCell id="6IGV_KWASFzJ5lWBxESU-208" value="&lt;p style=&quot;line-height: 110% ; font-size: 8px&quot;&gt;correct code?&lt;/p&gt;" style="rhombus;whiteSpace=wrap;html=1;" parent="1" vertex="1">
                    <mxGeometry x="380" y="120" width="60" height="60" as="geometry"/>
                </mxCell>
                <mxCell id="3" value="" style="edgeStyle=none;html=1;labelBackgroundColor=#FFFFFF;fontColor=#1A1A1A;" parent="1" source="6IGV_KWASFzJ5lWBxESU-218" target="6IGV_KWASFzJ5lWBxESU-146" edge="1">
                    <mxGeometry relative="1" as="geometry"/>
                </mxCell>
                <mxCell id="6IGV_KWASFzJ5lWBxESU-218" value="&lt;span style=&quot;font-size: 10px&quot;&gt;jump to the main interface&lt;/span&gt;" style="rounded=0;whiteSpace=wrap;html=1;fillColor=#dae8fc;strokeColor=#6c8ebf;fontColor=#1A1A1A;" parent="1" vertex="1">
                    <mxGeometry x="770" y="285" width="85" height="40" as="geometry"/>
                </mxCell>
                <mxCell id="6IGV_KWASFzJ5lWBxESU-234" style="edgeStyle=orthogonalEdgeStyle;rounded=0;orthogonalLoop=1;jettySize=auto;html=1;exitX=1;exitY=0.5;exitDx=0;exitDy=0;entryX=0;entryY=0.5;entryDx=0;entryDy=0;strokeColor=#000000;" parent="1" source="6IGV_KWASFzJ5lWBxESU-221" target="6IGV_KWASFzJ5lWBxESU-233" edge="1">
                    <mxGeometry relative="1" as="geometry"/>
                </mxCell>
                <mxCell id="6IGV_KWASFzJ5lWBxESU-241" value="YES" style="edgeLabel;html=1;align=center;verticalAlign=middle;resizable=0;points=[];" parent="6IGV_KWASFzJ5lWBxESU-234" vertex="1" connectable="0">
                    <mxGeometry x="-0.2356" relative="1" as="geometry">
                        <mxPoint as="offset"/>
                    </mxGeometry>
                </mxCell>
                <mxCell id="6IGV_KWASFzJ5lWBxESU-238" style="edgeStyle=orthogonalEdgeStyle;rounded=0;orthogonalLoop=1;jettySize=auto;html=1;exitX=0.5;exitY=0;exitDx=0;exitDy=0;entryX=0;entryY=0.5;entryDx=0;entryDy=0;entryPerimeter=0;labelBackgroundColor=#CCE5FF;strokeColor=#000000;" parent="1" source="6IGV_KWASFzJ5lWBxESU-221" target="6IGV_KWASFzJ5lWBxESU-236" edge="1">
                    <mxGeometry relative="1" as="geometry">
                        <Array as="points">
                            <mxPoint x="265" y="740"/>
                        </Array>
                    </mxGeometry>
                </mxCell>
                <mxCell id="6IGV_KWASFzJ5lWBxESU-240" value="NO" style="edgeLabel;html=1;align=center;verticalAlign=middle;resizable=0;points=[];" parent="6IGV_KWASFzJ5lWBxESU-238" vertex="1" connectable="0">
                    <mxGeometry x="-0.5226" y="1" relative="1" as="geometry">
                        <mxPoint x="1" y="4.05" as="offset"/>
                    </mxGeometry>
                </mxCell>
                <mxCell id="6IGV_KWASFzJ5lWBxESU-221" value="&lt;pre style=&quot;line-height: 100%&quot;&gt;&lt;font style=&quot;font-size: 6px&quot;&gt;is_licensed == True&lt;/font&gt;&lt;/pre&gt;" style="rhombus;whiteSpace=wrap;html=1;" parent="1" vertex="1">
                    <mxGeometry x="225" y="775" width="80" height="60" as="geometry"/>
                </mxCell>
                <mxCell id="6IGV_KWASFzJ5lWBxESU-233" value="&lt;span style=&quot;font-size: 10px&quot;&gt;jump to the Agency Dashboard&lt;/span&gt;" style="rounded=0;whiteSpace=wrap;html=1;fillColor=#dae8fc;strokeColor=#6c8ebf;" parent="1" vertex="1">
                    <mxGeometry x="350" y="780" width="60" height="50" as="geometry"/>
                </mxCell>
                <mxCell id="6IGV_KWASFzJ5lWBxESU-235" value="&lt;font style=&quot;font-size: 18px&quot;&gt;Agency Dashboard&amp;nbsp;&lt;/font&gt;&lt;font style=&quot;font-size: 8px&quot;&gt;(manager)&lt;/font&gt;" style="text;strokeColor=none;fillColor=none;html=1;fontSize=24;fontStyle=1;verticalAlign=middle;align=left;" parent="1" vertex="1">
                    <mxGeometry x="450" y="350" width="345" height="40" as="geometry"/>
                </mxCell>
                <mxCell id="6IGV_KWASFzJ5lWBxESU-242" style="edgeStyle=orthogonalEdgeStyle;rounded=0;orthogonalLoop=1;jettySize=auto;html=1;exitX=0.424;exitY=-0.007;exitDx=0;exitDy=0;exitPerimeter=0;entryX=0.431;entryY=1.04;entryDx=0;entryDy=0;entryPerimeter=0;labelBackgroundColor=#CCE5FF;strokeColor=#000000;" parent="1" source="6IGV_KWASFzJ5lWBxESU-236" target="6IGV_KWASFzJ5lWBxESU-174" edge="1">
                    <mxGeometry relative="1" as="geometry"/>
                </mxCell>
                <mxCell id="6IGV_KWASFzJ5lWBxESU-236" value="&lt;p style=&quot;line-height: 70%&quot;&gt;&lt;/p&gt;&lt;div style=&quot;font-size: 9px&quot;&gt;you must enter your&lt;br&gt;License ID&lt;/div&gt;&lt;p&gt;&lt;/p&gt;" style="shape=display;whiteSpace=wrap;html=1;align=center;size=0.25;fillColor=#d5e8d4;strokeColor=#82b366;fontStyle=1" parent="1" vertex="1">
                    <mxGeometry x="310" y="715" width="100" height="50" as="geometry"/>
                </mxCell>
                <mxCell id="6IGV_KWASFzJ5lWBxESU-361" style="edgeStyle=none;shape=link;rounded=0;orthogonalLoop=1;jettySize=auto;html=1;exitX=0.25;exitY=1;exitDx=0;exitDy=0;entryX=0.008;entryY=0.572;entryDx=0;entryDy=0;entryPerimeter=0;labelBackgroundColor=#CCE5FF;strokeColor=#000000;" parent="1" source="6IGV_KWASFzJ5lWBxESU-248" target="6IGV_KWASFzJ5lWBxESU-249" edge="1">
                    <mxGeometry relative="1" as="geometry">
                        <Array as="points">
                            <mxPoint x="493" y="467"/>
                        </Array>
                    </mxGeometry>
                </mxCell>
                <mxCell id="6IGV_KWASFzJ5lWBxESU-362" style="edgeStyle=none;shape=link;rounded=0;orthogonalLoop=1;jettySize=auto;html=1;exitX=0.25;exitY=1;exitDx=0;exitDy=0;entryX=0;entryY=0.5;entryDx=0;entryDy=0;labelBackgroundColor=#CCE5FF;strokeColor=#000000;" parent="1" source="6IGV_KWASFzJ5lWBxESU-248" target="6IGV_KWASFzJ5lWBxESU-251" edge="1">
                    <mxGeometry relative="1" as="geometry">
                        <Array as="points">
                            <mxPoint x="493" y="535"/>
                        </Array>
                    </mxGeometry>
                </mxCell>
                <mxCell id="6IGV_KWASFzJ5lWBxESU-363" style="edgeStyle=none;shape=link;rounded=0;orthogonalLoop=1;jettySize=auto;html=1;exitX=0.25;exitY=1;exitDx=0;exitDy=0;entryX=0.008;entryY=0.594;entryDx=0;entryDy=0;entryPerimeter=0;labelBackgroundColor=#CCE5FF;strokeColor=#000000;" parent="1" source="6IGV_KWASFzJ5lWBxESU-248" edge="1">
                    <mxGeometry relative="1" as="geometry">
                        <mxPoint x="515.6400000000001" y="625.7900000000002" as="targetPoint"/>
                        <Array as="points">
                            <mxPoint x="493" y="626"/>
                        </Array>
                    </mxGeometry>
                </mxCell>
                <mxCell id="6IGV_KWASFzJ5lWBxESU-248" value="start&amp;nbsp;" style="rounded=1;whiteSpace=wrap;html=1;fillColor=#fff2cc;strokeColor=#d6b656;" parent="1" vertex="1">
                    <mxGeometry x="475" y="395" width="70" height="25" as="geometry"/>
                </mxCell>
                <mxCell id="6IGV_KWASFzJ5lWBxESU-256" style="edgeStyle=orthogonalEdgeStyle;rounded=0;orthogonalLoop=1;jettySize=auto;html=1;exitX=1;exitY=0.5;exitDx=0;exitDy=0;entryX=0;entryY=0.75;entryDx=0;entryDy=0;labelBackgroundColor=#CCE5FF;strokeColor=#000000;" parent="1" source="6IGV_KWASFzJ5lWBxESU-249" target="6IGV_KWASFzJ5lWBxESU-255" edge="1">
                    <mxGeometry relative="1" as="geometry">
                        <Array as="points">
                            <mxPoint x="595" y="468"/>
                            <mxPoint x="615" y="468"/>
                        </Array>
                    </mxGeometry>
                </mxCell>
                <mxCell id="6IGV_KWASFzJ5lWBxESU-249" value="Add Prop" style="ellipse;whiteSpace=wrap;html=1;fillColor=#e1d5e7;strokeColor=#9673a6;" parent="1" vertex="1">
                    <mxGeometry x="515" y="450" width="80" height="30" as="geometry"/>
                </mxCell>
                <mxCell id="6IGV_KWASFzJ5lWBxESU-262" style="edgeStyle=orthogonalEdgeStyle;rounded=0;orthogonalLoop=1;jettySize=auto;html=1;exitX=1;exitY=0.5;exitDx=0;exitDy=0;entryX=0;entryY=0.5;entryDx=0;entryDy=0;labelBackgroundColor=#CCE5FF;strokeColor=#000000;" parent="1" source="6IGV_KWASFzJ5lWBxESU-251" target="6IGV_KWASFzJ5lWBxESU-261" edge="1">
                    <mxGeometry relative="1" as="geometry">
                        <Array as="points">
                            <mxPoint x="605" y="535"/>
                            <mxPoint x="605" y="565"/>
                        </Array>
                    </mxGeometry>
                </mxCell>
                <mxCell id="6IGV_KWASFzJ5lWBxESU-263" style="edgeStyle=orthogonalEdgeStyle;rounded=0;orthogonalLoop=1;jettySize=auto;html=1;exitX=1;exitY=0.5;exitDx=0;exitDy=0;entryX=0;entryY=0.5;entryDx=0;entryDy=0;labelBackgroundColor=#CCE5FF;strokeColor=#000000;" parent="1" source="6IGV_KWASFzJ5lWBxESU-251" target="6IGV_KWASFzJ5lWBxESU-260" edge="1">
                    <mxGeometry relative="1" as="geometry">
                        <Array as="points">
                            <mxPoint x="605" y="535"/>
                            <mxPoint x="605" y="510"/>
                        </Array>
                    </mxGeometry>
                </mxCell>
                <mxCell id="6IGV_KWASFzJ5lWBxESU-251" value="Show Prop" style="ellipse;whiteSpace=wrap;html=1;fillColor=#e1d5e7;strokeColor=#9673a6;" parent="1" vertex="1">
                    <mxGeometry x="515" y="520" width="80" height="30" as="geometry"/>
                </mxCell>
                <mxCell id="6IGV_KWASFzJ5lWBxESU-394" style="edgeStyle=none;rounded=0;orthogonalLoop=1;jettySize=auto;html=1;exitX=1;exitY=0.5;exitDx=0;exitDy=0;entryX=0;entryY=0.68;entryDx=0;entryDy=0;entryPerimeter=0;labelBackgroundColor=#CCE5FF;strokeColor=#000000;" parent="1" source="6IGV_KWASFzJ5lWBxESU-253" target="6IGV_KWASFzJ5lWBxESU-265" edge="1">
                    <mxGeometry relative="1" as="geometry"/>
                </mxCell>
                <mxCell id="6IGV_KWASFzJ5lWBxESU-253" value="Edit Agency info" style="ellipse;whiteSpace=wrap;html=1;fillColor=#e1d5e7;strokeColor=#9673a6;" parent="1" vertex="1">
                    <mxGeometry x="490" y="605" width="80" height="35" as="geometry"/>
                </mxCell>
                <mxCell id="6IGV_KWASFzJ5lWBxESU-259" style="edgeStyle=orthogonalEdgeStyle;rounded=0;orthogonalLoop=1;jettySize=auto;html=1;exitX=1;exitY=0.75;exitDx=0;exitDy=0;entryX=0.002;entryY=0.602;entryDx=0;entryDy=0;entryPerimeter=0;labelBackgroundColor=#CCE5FF;strokeColor=#000000;" parent="1" source="6IGV_KWASFzJ5lWBxESU-255" target="6IGV_KWASFzJ5lWBxESU-257" edge="1">
                    <mxGeometry relative="1" as="geometry"/>
                </mxCell>
                <mxCell id="6IGV_KWASFzJ5lWBxESU-255" value="&lt;font style=&quot;font-size: 10px&quot;&gt;&lt;br&gt;&lt;br&gt;Prop Info&lt;br&gt;&lt;/font&gt;" style="shape=manualInput;whiteSpace=wrap;html=1;fillColor=#e1d5e7;strokeColor=#9673a6;" parent="1" vertex="1">
                    <mxGeometry x="635" y="430" width="65" height="50" as="geometry"/>
                </mxCell>
                <mxCell id="6IGV_KWASFzJ5lWBxESU-257" value="&lt;font style=&quot;font-size: 10px&quot;&gt;store&lt;/font&gt;" style="rounded=0;whiteSpace=wrap;html=1;fillColor=#dae8fc;strokeColor=#6c8ebf;" parent="1" vertex="1">
                    <mxGeometry x="735" y="455" width="40" height="20" as="geometry"/>
                </mxCell>
                <mxCell id="6IGV_KWASFzJ5lWBxESU-264" style="edgeStyle=orthogonalEdgeStyle;rounded=0;orthogonalLoop=1;jettySize=auto;html=1;exitX=0.5;exitY=0;exitDx=0;exitDy=0;entryX=0.5;entryY=1;entryDx=0;entryDy=0;labelBackgroundColor=#CCE5FF;strokeColor=#000000;" parent="1" source="6IGV_KWASFzJ5lWBxESU-260" target="6IGV_KWASFzJ5lWBxESU-255" edge="1">
                    <mxGeometry relative="1" as="geometry"/>
                </mxCell>
                <mxCell id="6IGV_KWASFzJ5lWBxESU-260" value="Edit Prop" style="ellipse;whiteSpace=wrap;html=1;fillColor=#e1d5e7;strokeColor=#9673a6;" parent="1" vertex="1">
                    <mxGeometry x="627.5" y="495" width="80" height="30" as="geometry"/>
                </mxCell>
                <mxCell id="6IGV_KWASFzJ5lWBxESU-270" style="edgeStyle=orthogonalEdgeStyle;rounded=0;orthogonalLoop=1;jettySize=auto;html=1;exitX=1;exitY=0.5;exitDx=0;exitDy=0;entryX=0;entryY=0.5;entryDx=0;entryDy=0;labelBackgroundColor=#CCE5FF;strokeColor=#000000;" parent="1" source="6IGV_KWASFzJ5lWBxESU-261" target="6IGV_KWASFzJ5lWBxESU-269" edge="1">
                    <mxGeometry relative="1" as="geometry"/>
                </mxCell>
                <mxCell id="6IGV_KWASFzJ5lWBxESU-261" value="Delete Prop" style="ellipse;whiteSpace=wrap;html=1;fillColor=#e1d5e7;strokeColor=#9673a6;" parent="1" vertex="1">
                    <mxGeometry x="627.5" y="550" width="80" height="30" as="geometry"/>
                </mxCell>
                <mxCell id="6IGV_KWASFzJ5lWBxESU-395" style="edgeStyle=none;rounded=0;orthogonalLoop=1;jettySize=auto;html=1;exitX=1;exitY=0.75;exitDx=0;exitDy=0;labelBackgroundColor=#CCE5FF;strokeColor=#000000;" parent="1" source="6IGV_KWASFzJ5lWBxESU-265" target="6IGV_KWASFzJ5lWBxESU-266" edge="1">
                    <mxGeometry relative="1" as="geometry"/>
                </mxCell>
                <mxCell id="6IGV_KWASFzJ5lWBxESU-265" value="&lt;font style=&quot;font-size: 10px&quot;&gt;&lt;br&gt;&lt;br&gt;Agency Info&lt;br&gt;&lt;/font&gt;" style="shape=manualInput;whiteSpace=wrap;html=1;fillColor=#e1d5e7;strokeColor=#9673a6;" parent="1" vertex="1">
                    <mxGeometry x="610" y="590" width="65" height="50" as="geometry"/>
                </mxCell>
                <mxCell id="6IGV_KWASFzJ5lWBxESU-266" value="&lt;font style=&quot;font-size: 10px&quot;&gt;store&lt;/font&gt;" style="rounded=0;whiteSpace=wrap;html=1;fillColor=#dae8fc;strokeColor=#6c8ebf;" parent="1" vertex="1">
                    <mxGeometry x="737.5" y="615" width="40" height="20" as="geometry"/>
                </mxCell>
                <mxCell id="6IGV_KWASFzJ5lWBxESU-269" value="&lt;font style=&quot;font-size: 10px&quot;&gt;delete prop&lt;/font&gt;" style="rounded=0;whiteSpace=wrap;html=1;fillColor=#dae8fc;strokeColor=#6c8ebf;" parent="1" vertex="1">
                    <mxGeometry x="735" y="547.5" width="40" height="35" as="geometry"/>
                </mxCell>
                <mxCell id="6IGV_KWASFzJ5lWBxESU-274" value="&lt;font style=&quot;font-size: 18px&quot;&gt;Profile&amp;nbsp;&lt;/font&gt;&lt;font style=&quot;font-size: 8px&quot;&gt;(user - manager)&lt;/font&gt;" style="text;strokeColor=none;fillColor=none;html=1;fontSize=24;fontStyle=1;verticalAlign=middle;align=left;" parent="1" vertex="1">
                    <mxGeometry x="47.5" y="355" width="342.5" height="40" as="geometry"/>
                </mxCell>
                <mxCell id="6IGV_KWASFzJ5lWBxESU-293" style="edgeStyle=orthogonalEdgeStyle;rounded=0;orthogonalLoop=1;jettySize=auto;html=1;exitX=1;exitY=0.5;exitDx=0;exitDy=0;entryX=-0.016;entryY=0.798;entryDx=0;entryDy=0;entryPerimeter=0;labelBackgroundColor=#CCE5FF;strokeColor=#000000;" parent="1" source="6IGV_KWASFzJ5lWBxESU-278" target="6IGV_KWASFzJ5lWBxESU-286" edge="1">
                    <mxGeometry relative="1" as="geometry"/>
                </mxCell>
                <mxCell id="6IGV_KWASFzJ5lWBxESU-278" value="Edit info" style="ellipse;whiteSpace=wrap;html=1;fillColor=#e1d5e7;strokeColor=#9673a6;" parent="1" vertex="1">
                    <mxGeometry x="43.13" y="540" width="56.25" height="20" as="geometry"/>
                </mxCell>
                <mxCell id="6IGV_KWASFzJ5lWBxESU-296" style="edgeStyle=orthogonalEdgeStyle;rounded=0;orthogonalLoop=1;jettySize=auto;html=1;exitX=1;exitY=0.5;exitDx=0;exitDy=0;entryX=0;entryY=0.5;entryDx=0;entryDy=0;labelBackgroundColor=#CCE5FF;strokeColor=#000000;" parent="1" source="6IGV_KWASFzJ5lWBxESU-279" target="6IGV_KWASFzJ5lWBxESU-280" edge="1">
                    <mxGeometry relative="1" as="geometry"/>
                </mxCell>
                <mxCell id="6IGV_KWASFzJ5lWBxESU-365" style="edgeStyle=none;shape=link;rounded=0;orthogonalLoop=1;jettySize=auto;html=1;exitX=0.5;exitY=1;exitDx=0;exitDy=0;labelBackgroundColor=#CCE5FF;strokeColor=#000000;" parent="1" source="6IGV_KWASFzJ5lWBxESU-279" target="6IGV_KWASFzJ5lWBxESU-278" edge="1">
                    <mxGeometry relative="1" as="geometry"/>
                </mxCell>
                <mxCell id="6IGV_KWASFzJ5lWBxESU-366" style="edgeStyle=none;shape=link;rounded=0;orthogonalLoop=1;jettySize=auto;html=1;exitX=0.5;exitY=1;exitDx=0;exitDy=0;entryX=0.01;entryY=0.547;entryDx=0;entryDy=0;entryPerimeter=0;labelBackgroundColor=#CCE5FF;strokeColor=#000000;" parent="1" source="6IGV_KWASFzJ5lWBxESU-279" target="6IGV_KWASFzJ5lWBxESU-290" edge="1">
                    <mxGeometry relative="1" as="geometry">
                        <Array as="points">
                            <mxPoint x="71" y="497"/>
                        </Array>
                    </mxGeometry>
                </mxCell>
                <mxCell id="6IGV_KWASFzJ5lWBxESU-279" value="start&amp;nbsp;" style="rounded=1;whiteSpace=wrap;html=1;fillColor=#fff2cc;strokeColor=#d6b656;fontColor=#141414;" parent="1" vertex="1">
                    <mxGeometry x="52.5" y="395" width="37.5" height="25" as="geometry"/>
                </mxCell>
                <mxCell id="6IGV_KWASFzJ5lWBxESU-298" style="edgeStyle=orthogonalEdgeStyle;rounded=0;orthogonalLoop=1;jettySize=auto;html=1;exitX=0.5;exitY=1;exitDx=0;exitDy=0;entryX=0;entryY=0.5;entryDx=0;entryDy=0;labelBackgroundColor=#CCE5FF;strokeColor=#000000;" parent="1" source="6IGV_KWASFzJ5lWBxESU-280" target="6IGV_KWASFzJ5lWBxESU-297" edge="1">
                    <mxGeometry relative="1" as="geometry"/>
                </mxCell>
                <mxCell id="6IGV_KWASFzJ5lWBxESU-299" value="YES" style="edgeLabel;html=1;align=center;verticalAlign=middle;resizable=0;points=[];" parent="6IGV_KWASFzJ5lWBxESU-298" vertex="1" connectable="0">
                    <mxGeometry x="-0.4514" relative="1" as="geometry">
                        <mxPoint as="offset"/>
                    </mxGeometry>
                </mxCell>
                <mxCell id="6IGV_KWASFzJ5lWBxESU-307" style="edgeStyle=orthogonalEdgeStyle;rounded=0;orthogonalLoop=1;jettySize=auto;html=1;exitX=1;exitY=0.5;exitDx=0;exitDy=0;entryX=0;entryY=0.5;entryDx=0;entryDy=0;labelBackgroundColor=#CCE5FF;strokeColor=#000000;" parent="1" source="6IGV_KWASFzJ5lWBxESU-280" target="6IGV_KWASFzJ5lWBxESU-305" edge="1">
                    <mxGeometry relative="1" as="geometry"/>
                </mxCell>
                <mxCell id="6IGV_KWASFzJ5lWBxESU-308" value="NO" style="edgeLabel;html=1;align=center;verticalAlign=middle;resizable=0;points=[];" parent="6IGV_KWASFzJ5lWBxESU-307" vertex="1" connectable="0">
                    <mxGeometry x="-0.3444" relative="1" as="geometry">
                        <mxPoint x="0.85" as="offset"/>
                    </mxGeometry>
                </mxCell>
                <mxCell id="6IGV_KWASFzJ5lWBxESU-280" value="&lt;pre style=&quot;line-height: 100% ; font-size: 6px&quot;&gt;&lt;pre style=&quot;line-height: 11px&quot;&gt;&lt;pre style=&quot;line-height: 11px&quot;&gt;is_agency&lt;/pre&gt;&lt;pre style=&quot;line-height: 11px&quot;&gt;== True&lt;/pre&gt;&lt;/pre&gt;&lt;/pre&gt;" style="rhombus;whiteSpace=wrap;html=1;" parent="1" vertex="1">
                    <mxGeometry x="155" y="380" width="55" height="55" as="geometry"/>
                </mxCell>
                <mxCell id="6IGV_KWASFzJ5lWBxESU-294" style="edgeStyle=orthogonalEdgeStyle;rounded=0;orthogonalLoop=1;jettySize=auto;html=1;exitX=1;exitY=0.75;exitDx=0;exitDy=0;entryX=-0.004;entryY=0.373;entryDx=0;entryDy=0;entryPerimeter=0;labelBackgroundColor=#CCE5FF;strokeColor=#000000;" parent="1" source="6IGV_KWASFzJ5lWBxESU-286" target="6IGV_KWASFzJ5lWBxESU-288" edge="1">
                    <mxGeometry relative="1" as="geometry"/>
                </mxCell>
                <mxCell id="6IGV_KWASFzJ5lWBxESU-286" value="&lt;font style=&quot;font-size: 10px&quot;&gt;&lt;br&gt;&lt;br&gt;User Info&lt;br&gt;&lt;/font&gt;" style="shape=manualInput;whiteSpace=wrap;html=1;fillColor=#e1d5e7;strokeColor=#9673a6;" parent="1" vertex="1">
                    <mxGeometry x="140" y="510" width="55" height="50" as="geometry"/>
                </mxCell>
                <mxCell id="6IGV_KWASFzJ5lWBxESU-288" value="&lt;font style=&quot;font-size: 10px&quot;&gt;store&lt;/font&gt;" style="rounded=0;whiteSpace=wrap;html=1;fillColor=#dae8fc;strokeColor=#6c8ebf;" parent="1" vertex="1">
                    <mxGeometry x="250" y="540" width="40" height="20" as="geometry"/>
                </mxCell>
                <mxCell id="6IGV_KWASFzJ5lWBxESU-290" value="Show my fav prop" style="ellipse;whiteSpace=wrap;html=1;fillColor=#e1d5e7;strokeColor=#9673a6;fontColor=#1A1A1A;" parent="1" vertex="1">
                    <mxGeometry x="90" y="475" width="70" height="40" as="geometry"/>
                </mxCell>
                <mxCell id="6IGV_KWASFzJ5lWBxESU-302" style="edgeStyle=orthogonalEdgeStyle;rounded=0;orthogonalLoop=1;jettySize=auto;html=1;exitX=1;exitY=0.5;exitDx=0;exitDy=0;entryX=0;entryY=0.5;entryDx=0;entryDy=0;labelBackgroundColor=#CCE5FF;strokeColor=#000000;" parent="1" source="6IGV_KWASFzJ5lWBxESU-297" target="6IGV_KWASFzJ5lWBxESU-300" edge="1">
                    <mxGeometry relative="1" as="geometry"/>
                </mxCell>
                <mxCell id="6IGV_KWASFzJ5lWBxESU-297" value="&lt;span style=&quot;font-size: 10px&quot;&gt;Show &quot;Agency Dashboard&quot; Button&lt;/span&gt;" style="rounded=0;whiteSpace=wrap;html=1;fillColor=#dae8fc;strokeColor=#6c8ebf;fontColor=#1A1A1A;" parent="1" vertex="1">
                    <mxGeometry x="205" y="465" width="78.75" height="45" as="geometry"/>
                </mxCell>
                <mxCell id="6IGV_KWASFzJ5lWBxESU-304" style="edgeStyle=orthogonalEdgeStyle;rounded=0;orthogonalLoop=1;jettySize=auto;html=1;exitX=0.5;exitY=1;exitDx=0;exitDy=0;entryX=0.5;entryY=0;entryDx=0;entryDy=0;labelBackgroundColor=#CCE5FF;strokeColor=#000000;" parent="1" source="6IGV_KWASFzJ5lWBxESU-300" target="6IGV_KWASFzJ5lWBxESU-303" edge="1">
                    <mxGeometry relative="1" as="geometry"/>
                </mxCell>
                <mxCell id="6IGV_KWASFzJ5lWBxESU-300" value="on click" style="ellipse;whiteSpace=wrap;html=1;fillColor=#e1d5e7;strokeColor=#9673a6;fontColor=#1A1A1A;" parent="1" vertex="1">
                    <mxGeometry x="337.5" y="476.87" width="45" height="21.25" as="geometry"/>
                </mxCell>
                <mxCell id="6IGV_KWASFzJ5lWBxESU-303" value="&lt;span style=&quot;font-size: 10px&quot;&gt;jump to the Agency Dashboard&lt;/span&gt;" style="rounded=0;whiteSpace=wrap;html=1;fillColor=#dae8fc;strokeColor=#6c8ebf;" parent="1" vertex="1">
                    <mxGeometry x="330" y="510" width="60" height="50" as="geometry"/>
                </mxCell>
                <mxCell id="6IGV_KWASFzJ5lWBxESU-310" style="edgeStyle=orthogonalEdgeStyle;rounded=0;orthogonalLoop=1;jettySize=auto;html=1;exitX=1;exitY=0.5;exitDx=0;exitDy=0;entryX=0;entryY=0.5;entryDx=0;entryDy=0;labelBackgroundColor=#CCE5FF;strokeColor=#000000;" parent="1" source="6IGV_KWASFzJ5lWBxESU-305" target="6IGV_KWASFzJ5lWBxESU-309" edge="1">
                    <mxGeometry relative="1" as="geometry"/>
                </mxCell>
                <mxCell id="6IGV_KWASFzJ5lWBxESU-305" value="&lt;span style=&quot;font-size: 10px&quot;&gt;Show &quot;Register your agency&quot; Button&lt;/span&gt;" style="rounded=0;whiteSpace=wrap;html=1;fillColor=#dae8fc;strokeColor=#6c8ebf;fontColor=#1A1A1A;" parent="1" vertex="1">
                    <mxGeometry x="260" y="385" width="78.75" height="45" as="geometry"/>
                </mxCell>
                <mxCell id="6IGV_KWASFzJ5lWBxESU-311" style="edgeStyle=orthogonalEdgeStyle;rounded=0;orthogonalLoop=1;jettySize=auto;html=1;exitX=0.5;exitY=0;exitDx=0;exitDy=0;entryX=0.5;entryY=1;entryDx=0;entryDy=0;labelBackgroundColor=#CCE5FF;strokeColor=#000000;" parent="1" source="6IGV_KWASFzJ5lWBxESU-309" target="6IGV_KWASFzJ5lWBxESU-94" edge="1">
                    <mxGeometry relative="1" as="geometry">
                        <Array as="points">
                            <mxPoint x="375" y="370"/>
                            <mxPoint x="147" y="370"/>
                        </Array>
                    </mxGeometry>
                </mxCell>
                <mxCell id="6IGV_KWASFzJ5lWBxESU-309" value="on click" style="ellipse;whiteSpace=wrap;html=1;fillColor=#e1d5e7;strokeColor=#9673a6;fontColor=#333333;" parent="1" vertex="1">
                    <mxGeometry x="352.5" y="396.87" width="45" height="21.25" as="geometry"/>
                </mxCell>
                <mxCell id="6IGV_KWASFzJ5lWBxESU-313" value="" style="rounded=0;whiteSpace=wrap;html=1;strokeWidth=2;" parent="1" vertex="1">
                    <mxGeometry x="870" y="40" width="700" height="310" as="geometry"/>
                </mxCell>
                <mxCell id="6IGV_KWASFzJ5lWBxESU-314" value="&lt;font style=&quot;font-size: 18px&quot;&gt;Admins Dashboard - web&amp;nbsp;&lt;/font&gt;&lt;font style=&quot;font-size: 10px&quot;&gt;(admin)&lt;/font&gt;" style="text;strokeColor=none;fillColor=none;html=1;fontSize=24;fontStyle=1;verticalAlign=middle;align=left;" parent="1" vertex="1">
                    <mxGeometry x="890" y="40" width="345" height="40" as="geometry"/>
                </mxCell>
                <mxCell id="6IGV_KWASFzJ5lWBxESU-360" style="edgeStyle=none;shape=link;rounded=0;orthogonalLoop=1;jettySize=auto;html=1;exitX=1;exitY=0.5;exitDx=0;exitDy=0;entryX=0;entryY=0.5;entryDx=0;entryDy=0;labelBackgroundColor=#CCE5FF;strokeColor=#000000;" parent="1" source="6IGV_KWASFzJ5lWBxESU-315" target="6IGV_KWASFzJ5lWBxESU-340" edge="1">
                    <mxGeometry relative="1" as="geometry"/>
                </mxCell>
                <mxCell id="6IGV_KWASFzJ5lWBxESU-315" value="start&amp;nbsp;" style="rounded=1;whiteSpace=wrap;html=1;fillColor=#fff2cc;strokeColor=#d6b656;" parent="1" vertex="1">
                    <mxGeometry x="895" y="101.25" width="70" height="25" as="geometry"/>
                </mxCell>
                <mxCell id="6IGV_KWASFzJ5lWBxESU-328" style="edgeStyle=orthogonalEdgeStyle;rounded=0;orthogonalLoop=1;jettySize=auto;html=1;exitX=1;exitY=0.5;exitDx=0;exitDy=0;labelBackgroundColor=#CCE5FF;strokeColor=#000000;" parent="1" source="6IGV_KWASFzJ5lWBxESU-321" target="6IGV_KWASFzJ5lWBxESU-322" edge="1">
                    <mxGeometry relative="1" as="geometry"/>
                </mxCell>
                <mxCell id="6IGV_KWASFzJ5lWBxESU-321" value="Delete Prop" style="ellipse;whiteSpace=wrap;html=1;fillColor=#e1d5e7;strokeColor=#9673a6;" parent="1" vertex="1">
                    <mxGeometry x="1230" y="123.75" width="80" height="30" as="geometry"/>
                </mxCell>
                <mxCell id="6IGV_KWASFzJ5lWBxESU-322" value="&lt;font style=&quot;font-size: 10px&quot;&gt;delete prop&lt;/font&gt;" style="rounded=0;whiteSpace=wrap;html=1;fillColor=#dae8fc;strokeColor=#6c8ebf;" parent="1" vertex="1">
                    <mxGeometry x="1322.5" y="121.25" width="40" height="35" as="geometry"/>
                </mxCell>
                <mxCell id="6IGV_KWASFzJ5lWBxESU-331" style="edgeStyle=orthogonalEdgeStyle;rounded=0;orthogonalLoop=1;jettySize=auto;html=1;exitX=1;exitY=0.5;exitDx=0;exitDy=0;entryX=0.021;entryY=0.8;entryDx=0;entryDy=0;entryPerimeter=0;labelBackgroundColor=#CCE5FF;strokeColor=#000000;" parent="1" source="6IGV_KWASFzJ5lWBxESU-323" target="6IGV_KWASFzJ5lWBxESU-329" edge="1">
                    <mxGeometry relative="1" as="geometry"/>
                </mxCell>
                <mxCell id="6IGV_KWASFzJ5lWBxESU-323" value="Edit Prop" style="ellipse;whiteSpace=wrap;html=1;fillColor=#e1d5e7;strokeColor=#9673a6;" parent="1" vertex="1">
                    <mxGeometry x="1230" y="78.75" width="80" height="30" as="geometry"/>
                </mxCell>
                <mxCell id="6IGV_KWASFzJ5lWBxESU-358" style="edgeStyle=none;shape=link;rounded=0;orthogonalLoop=1;jettySize=auto;html=1;exitX=1;exitY=0.5;exitDx=0;exitDy=0;entryX=0;entryY=0.5;entryDx=0;entryDy=0;labelBackgroundColor=#CCE5FF;strokeColor=#000000;" parent="1" source="6IGV_KWASFzJ5lWBxESU-324" target="6IGV_KWASFzJ5lWBxESU-323" edge="1">
                    <mxGeometry relative="1" as="geometry">
                        <Array as="points">
                            <mxPoint x="1200" y="94"/>
                        </Array>
                    </mxGeometry>
                </mxCell>
                <mxCell id="6IGV_KWASFzJ5lWBxESU-359" style="edgeStyle=none;shape=link;rounded=0;orthogonalLoop=1;jettySize=auto;html=1;exitX=1;exitY=0.5;exitDx=0;exitDy=0;entryX=0;entryY=0.5;entryDx=0;entryDy=0;labelBackgroundColor=#CCE5FF;strokeColor=#000000;" parent="1" source="6IGV_KWASFzJ5lWBxESU-324" target="6IGV_KWASFzJ5lWBxESU-321" edge="1">
                    <mxGeometry relative="1" as="geometry">
                        <Array as="points">
                            <mxPoint x="1200" y="139"/>
                        </Array>
                    </mxGeometry>
                </mxCell>
                <mxCell id="6IGV_KWASFzJ5lWBxESU-324" value="Show Prop" style="ellipse;whiteSpace=wrap;html=1;fillColor=#e1d5e7;strokeColor=#9673a6;" parent="1" vertex="1">
                    <mxGeometry x="1120" y="98.75" width="80" height="30" as="geometry"/>
                </mxCell>
                <mxCell id="6IGV_KWASFzJ5lWBxESU-332" style="edgeStyle=orthogonalEdgeStyle;rounded=0;orthogonalLoop=1;jettySize=auto;html=1;exitX=1;exitY=0.75;exitDx=0;exitDy=0;entryX=0;entryY=0.633;entryDx=0;entryDy=0;entryPerimeter=0;labelBackgroundColor=#CCE5FF;strokeColor=#000000;" parent="1" source="6IGV_KWASFzJ5lWBxESU-329" target="6IGV_KWASFzJ5lWBxESU-330" edge="1">
                    <mxGeometry relative="1" as="geometry"/>
                </mxCell>
                <mxCell id="6IGV_KWASFzJ5lWBxESU-329" value="&lt;font style=&quot;font-size: 10px&quot;&gt;&lt;br&gt;&lt;br&gt;Prop Info&lt;br&gt;&lt;/font&gt;" style="shape=manualInput;whiteSpace=wrap;html=1;fillColor=#e1d5e7;strokeColor=#9673a6;" parent="1" vertex="1">
                    <mxGeometry x="1330" y="53.75" width="65" height="50" as="geometry"/>
                </mxCell>
                <mxCell id="6IGV_KWASFzJ5lWBxESU-330" value="&lt;font style=&quot;font-size: 10px&quot;&gt;store&lt;/font&gt;" style="rounded=0;whiteSpace=wrap;html=1;fillColor=#dae8fc;strokeColor=#6c8ebf;" parent="1" vertex="1">
                    <mxGeometry x="1420" y="78.75" width="40" height="20" as="geometry"/>
                </mxCell>
                <mxCell id="6IGV_KWASFzJ5lWBxESU-354" style="rounded=0;orthogonalLoop=1;jettySize=auto;html=1;exitX=1;exitY=0.5;exitDx=0;exitDy=0;entryX=0;entryY=0.5;entryDx=0;entryDy=0;labelBackgroundColor=#CCE5FF;strokeColor=#000000;shape=link;" parent="1" source="6IGV_KWASFzJ5lWBxESU-340" target="6IGV_KWASFzJ5lWBxESU-324" edge="1">
                    <mxGeometry relative="1" as="geometry"/>
                </mxCell>
                <mxCell id="6IGV_KWASFzJ5lWBxESU-356" style="edgeStyle=none;shape=link;rounded=0;orthogonalLoop=1;jettySize=auto;html=1;exitX=0.5;exitY=1;exitDx=0;exitDy=0;entryX=0;entryY=0.5;entryDx=0;entryDy=0;labelBackgroundColor=#CCE5FF;strokeColor=#000000;" parent="1" source="6IGV_KWASFzJ5lWBxESU-340" target="6IGV_KWASFzJ5lWBxESU-355" edge="1">
                    <mxGeometry relative="1" as="geometry">
                        <Array as="points">
                            <mxPoint x="1080" y="150"/>
                        </Array>
                    </mxGeometry>
                </mxCell>
                <mxCell id="6IGV_KWASFzJ5lWBxESU-340" value="Show Agency" style="ellipse;whiteSpace=wrap;html=1;fillColor=#e1d5e7;strokeColor=#9673a6;" parent="1" vertex="1">
                    <mxGeometry x="1000" y="98.75" width="80" height="30" as="geometry"/>
                </mxCell>
                <mxCell id="6IGV_KWASFzJ5lWBxESU-352" style="edgeStyle=orthogonalEdgeStyle;rounded=0;orthogonalLoop=1;jettySize=auto;html=1;exitX=1;exitY=0.5;exitDx=0;exitDy=0;entryX=0;entryY=0.5;entryDx=0;entryDy=0;labelBackgroundColor=#CCE5FF;strokeColor=#000000;" parent="1" source="6IGV_KWASFzJ5lWBxESU-348" target="6IGV_KWASFzJ5lWBxESU-349" edge="1">
                    <mxGeometry relative="1" as="geometry"/>
                </mxCell>
                <mxCell id="6IGV_KWASFzJ5lWBxESU-348" value="Delete User" style="ellipse;whiteSpace=wrap;html=1;fillColor=#e1d5e7;strokeColor=#9673a6;" parent="1" vertex="1">
                    <mxGeometry x="1230" y="185" width="80" height="30" as="geometry"/>
                </mxCell>
                <mxCell id="6IGV_KWASFzJ5lWBxESU-349" value="&lt;font style=&quot;font-size: 10px&quot;&gt;delete user&lt;/font&gt;" style="rounded=0;whiteSpace=wrap;html=1;fillColor=#dae8fc;strokeColor=#6c8ebf;" parent="1" vertex="1">
                    <mxGeometry x="1322.5" y="182.5" width="40" height="35" as="geometry"/>
                </mxCell>
                <mxCell id="6IGV_KWASFzJ5lWBxESU-357" style="edgeStyle=none;shape=link;rounded=0;orthogonalLoop=1;jettySize=auto;html=1;exitX=1;exitY=0.5;exitDx=0;exitDy=0;entryX=0;entryY=0.5;entryDx=0;entryDy=0;labelBackgroundColor=#CCE5FF;strokeColor=#000000;" parent="1" source="6IGV_KWASFzJ5lWBxESU-355" target="6IGV_KWASFzJ5lWBxESU-348" edge="1">
                    <mxGeometry relative="1" as="geometry"/>
                </mxCell>
                <mxCell id="6IGV_KWASFzJ5lWBxESU-355" value="Show User" style="ellipse;whiteSpace=wrap;html=1;fillColor=#e1d5e7;strokeColor=#9673a6;" parent="1" vertex="1">
                    <mxGeometry x="1120" y="156.25" width="80" height="30" as="geometry"/>
                </mxCell>
                <mxCell id="6IGV_KWASFzJ5lWBxESU-368" value="" style="endArrow=none;html=1;labelBackgroundColor=#CCE5FF;strokeColor=#000000;entryX=0.023;entryY=0.496;entryDx=0;entryDy=0;exitX=1.008;exitY=0.2;exitDx=0;exitDy=0;exitPerimeter=0;entryPerimeter=0;" parent="1" target="6IGV_KWASFzJ5lWBxESU-168" edge="1">
                    <mxGeometry width="50" height="50" relative="1" as="geometry">
                        <mxPoint x="106.25000000000003" y="649.9" as="sourcePoint"/>
                        <mxPoint x="129.47" y="649.9" as="targetPoint"/>
                        <Array as="points">
                            <mxPoint x="119.47" y="649.9"/>
                        </Array>
                    </mxGeometry>
                </mxCell>
                <mxCell id="6IGV_KWASFzJ5lWBxESU-370" value="" style="rounded=0;whiteSpace=wrap;html=1;strokeWidth=2;" parent="1" vertex="1">
                    <mxGeometry x="440" y="660" width="390" height="185" as="geometry"/>
                </mxCell>
                <mxCell id="6IGV_KWASFzJ5lWBxESU-371" value="&lt;font style=&quot;font-size: 18px&quot;&gt;Web dash&amp;nbsp;&lt;/font&gt;&lt;font style=&quot;font-size: 8px&quot;&gt;(user - manager - admin)&lt;/font&gt;" style="text;strokeColor=none;fillColor=none;html=1;fontSize=24;fontStyle=1;verticalAlign=middle;align=left;" parent="1" vertex="1">
                    <mxGeometry x="445" y="650" width="345" height="45" as="geometry"/>
                </mxCell>
                <mxCell id="6IGV_KWASFzJ5lWBxESU-374" style="edgeStyle=none;rounded=0;orthogonalLoop=1;jettySize=auto;html=1;exitX=0.5;exitY=1;exitDx=0;exitDy=0;entryX=0.5;entryY=0;entryDx=0;entryDy=0;labelBackgroundColor=#CCE5FF;strokeColor=#000000;" parent="1" source="6IGV_KWASFzJ5lWBxESU-372" target="6IGV_KWASFzJ5lWBxESU-373" edge="1">
                    <mxGeometry relative="1" as="geometry"/>
                </mxCell>
                <mxCell id="6IGV_KWASFzJ5lWBxESU-372" value="start&amp;nbsp;" style="rounded=1;whiteSpace=wrap;html=1;fillColor=#fff2cc;strokeColor=#d6b656;" parent="1" vertex="1">
                    <mxGeometry x="450" y="690" width="50" height="15" as="geometry"/>
                </mxCell>
                <mxCell id="6IGV_KWASFzJ5lWBxESU-387" style="edgeStyle=none;rounded=0;orthogonalLoop=1;jettySize=auto;html=1;exitX=0.5;exitY=1;exitDx=0;exitDy=0;entryX=0;entryY=0.5;entryDx=0;entryDy=0;labelBackgroundColor=#CCE5FF;strokeColor=#000000;" parent="1" source="6IGV_KWASFzJ5lWBxESU-373" target="6IGV_KWASFzJ5lWBxESU-375" edge="1">
                    <mxGeometry relative="1" as="geometry">
                        <Array as="points">
                            <mxPoint x="475" y="810"/>
                        </Array>
                    </mxGeometry>
                </mxCell>
                <mxCell id="6IGV_KWASFzJ5lWBxESU-373" value="&lt;font style=&quot;font-size: 10px&quot;&gt;Log in&lt;/font&gt;" style="rounded=0;whiteSpace=wrap;html=1;fillColor=#dae8fc;strokeColor=#6c8ebf;" parent="1" vertex="1">
                    <mxGeometry x="455" y="755" width="40" height="20" as="geometry"/>
                </mxCell>
                <mxCell id="6IGV_KWASFzJ5lWBxESU-378" style="edgeStyle=none;rounded=0;orthogonalLoop=1;jettySize=auto;html=1;exitX=0.5;exitY=0;exitDx=0;exitDy=0;entryX=0.5;entryY=1;entryDx=0;entryDy=0;labelBackgroundColor=#CCE5FF;strokeColor=#000000;" parent="1" source="6IGV_KWASFzJ5lWBxESU-375" target="6IGV_KWASFzJ5lWBxESU-377" edge="1">
                    <mxGeometry relative="1" as="geometry"/>
                </mxCell>
                <mxCell id="6IGV_KWASFzJ5lWBxESU-379" value="YES" style="edgeLabel;html=1;align=center;verticalAlign=middle;resizable=0;points=[];" parent="6IGV_KWASFzJ5lWBxESU-378" vertex="1" connectable="0">
                    <mxGeometry x="-0.1828" relative="1" as="geometry">
                        <mxPoint as="offset"/>
                    </mxGeometry>
                </mxCell>
                <mxCell id="6IGV_KWASFzJ5lWBxESU-381" style="edgeStyle=none;rounded=0;orthogonalLoop=1;jettySize=auto;html=1;exitX=1;exitY=0.5;exitDx=0;exitDy=0;entryX=0;entryY=0.5;entryDx=0;entryDy=0;labelBackgroundColor=#CCE5FF;strokeColor=#000000;" parent="1" source="6IGV_KWASFzJ5lWBxESU-375" target="6IGV_KWASFzJ5lWBxESU-380" edge="1">
                    <mxGeometry relative="1" as="geometry"/>
                </mxCell>
                <mxCell id="6IGV_KWASFzJ5lWBxESU-382" value="NO" style="edgeLabel;html=1;align=center;verticalAlign=middle;resizable=0;points=[];" parent="6IGV_KWASFzJ5lWBxESU-381" vertex="1" connectable="0">
                    <mxGeometry x="-0.3928" y="-1" relative="1" as="geometry">
                        <mxPoint x="3.37" y="-1" as="offset"/>
                    </mxGeometry>
                </mxCell>
                <mxCell id="6IGV_KWASFzJ5lWBxESU-375" value="&lt;pre&gt;&lt;font style=&quot;font-size: 6px&quot;&gt;role==admin&lt;/font&gt;&lt;/pre&gt;" style="rhombus;whiteSpace=wrap;html=1;" parent="1" vertex="1">
                    <mxGeometry x="500" y="785" width="70" height="50" as="geometry"/>
                </mxCell>
                <mxCell id="6IGV_KWASFzJ5lWBxESU-377" value="&lt;span style=&quot;font-size: 10px&quot;&gt;jump to the Admin Dashboard&lt;/span&gt;" style="rounded=0;whiteSpace=wrap;html=1;fillColor=#dae8fc;strokeColor=#6c8ebf;" parent="1" vertex="1">
                    <mxGeometry x="505" y="705" width="60" height="50" as="geometry"/>
                </mxCell>
                <mxCell id="6IGV_KWASFzJ5lWBxESU-384" style="edgeStyle=none;rounded=0;orthogonalLoop=1;jettySize=auto;html=1;exitX=0.5;exitY=0;exitDx=0;exitDy=0;entryX=0.5;entryY=1;entryDx=0;entryDy=0;labelBackgroundColor=#CCE5FF;strokeColor=#000000;" parent="1" source="6IGV_KWASFzJ5lWBxESU-380" target="6IGV_KWASFzJ5lWBxESU-389" edge="1">
                    <mxGeometry relative="1" as="geometry">
                        <mxPoint x="647.5" y="750" as="targetPoint"/>
                    </mxGeometry>
                </mxCell>
                <mxCell id="6IGV_KWASFzJ5lWBxESU-385" value="YES" style="edgeLabel;html=1;align=center;verticalAlign=middle;resizable=0;points=[];" parent="6IGV_KWASFzJ5lWBxESU-384" vertex="1" connectable="0">
                    <mxGeometry x="-0.2984" relative="1" as="geometry">
                        <mxPoint as="offset"/>
                    </mxGeometry>
                </mxCell>
                <mxCell id="6IGV_KWASFzJ5lWBxESU-392" style="edgeStyle=none;rounded=0;orthogonalLoop=1;jettySize=auto;html=1;exitX=1;exitY=0.5;exitDx=0;exitDy=0;entryX=-0.016;entryY=0.516;entryDx=0;entryDy=0;entryPerimeter=0;labelBackgroundColor=#CCE5FF;strokeColor=#000000;" parent="1" source="6IGV_KWASFzJ5lWBxESU-380" target="6IGV_KWASFzJ5lWBxESU-390" edge="1">
                    <mxGeometry relative="1" as="geometry"/>
                </mxCell>
                <mxCell id="6IGV_KWASFzJ5lWBxESU-393" value="NO" style="edgeLabel;html=1;align=center;verticalAlign=middle;resizable=0;points=[];" parent="6IGV_KWASFzJ5lWBxESU-392" vertex="1" connectable="0">
                    <mxGeometry x="-0.2964" relative="1" as="geometry">
                        <mxPoint y="1" as="offset"/>
                    </mxGeometry>
                </mxCell>
                <mxCell id="6IGV_KWASFzJ5lWBxESU-380" value="&lt;pre&gt;&lt;font style=&quot;font-size: 6px&quot;&gt;is_agency==True&lt;/font&gt;&lt;/pre&gt;" style="rhombus;whiteSpace=wrap;html=1;" parent="1" vertex="1">
                    <mxGeometry x="607.5" y="785" width="70" height="50" as="geometry"/>
                </mxCell>
                <mxCell id="6IGV_KWASFzJ5lWBxESU-388" value="&lt;font style=&quot;font-size: 7px&quot;&gt;jump to Agency Dashboard&lt;/font&gt;" style="rounded=0;whiteSpace=wrap;html=1;fillColor=#dae8fc;strokeColor=#6c8ebf;" parent="1" vertex="1">
                    <mxGeometry x="675" y="665" width="60" height="30" as="geometry"/>
                </mxCell>
                <mxCell id="6IGV_KWASFzJ5lWBxESU-396" style="edgeStyle=none;rounded=0;orthogonalLoop=1;jettySize=auto;html=1;exitX=0.5;exitY=0;exitDx=0;exitDy=0;entryX=0;entryY=0.5;entryDx=0;entryDy=0;labelBackgroundColor=#CCE5FF;strokeColor=#000000;" parent="1" source="6IGV_KWASFzJ5lWBxESU-389" target="6IGV_KWASFzJ5lWBxESU-388" edge="1">
                    <mxGeometry relative="1" as="geometry">
                        <Array as="points">
                            <mxPoint x="643" y="680"/>
                        </Array>
                    </mxGeometry>
                </mxCell>
                <mxCell id="6IGV_KWASFzJ5lWBxESU-402" value="YES" style="edgeLabel;html=1;align=center;verticalAlign=middle;resizable=0;points=[];" parent="6IGV_KWASFzJ5lWBxESU-396" vertex="1" connectable="0">
                    <mxGeometry x="0.108" y="-1" relative="1" as="geometry">
                        <mxPoint x="-7.04" y="9" as="offset"/>
                    </mxGeometry>
                </mxCell>
                <mxCell id="6IGV_KWASFzJ5lWBxESU-399" style="edgeStyle=none;rounded=0;orthogonalLoop=1;jettySize=auto;html=1;exitX=1;exitY=0.5;exitDx=0;exitDy=0;entryX=0;entryY=0.5;entryDx=0;entryDy=0;entryPerimeter=0;labelBackgroundColor=#CCE5FF;strokeColor=#000000;" parent="1" source="6IGV_KWASFzJ5lWBxESU-389" target="6IGV_KWASFzJ5lWBxESU-398" edge="1">
                    <mxGeometry relative="1" as="geometry"/>
                </mxCell>
                <mxCell id="6IGV_KWASFzJ5lWBxESU-400" value="NO" style="edgeLabel;html=1;align=center;verticalAlign=middle;resizable=0;points=[];" parent="6IGV_KWASFzJ5lWBxESU-399" vertex="1" connectable="0">
                    <mxGeometry x="-0.3289" y="1" relative="1" as="geometry">
                        <mxPoint as="offset"/>
                    </mxGeometry>
                </mxCell>
                <mxCell id="6IGV_KWASFzJ5lWBxESU-389" value="&lt;pre&gt;&lt;font style=&quot;font-size: 6px&quot;&gt;is_licensed==True&lt;/font&gt;&lt;/pre&gt;" style="rhombus;whiteSpace=wrap;html=1;" parent="1" vertex="1">
                    <mxGeometry x="607.5" y="705" width="70" height="50" as="geometry"/>
                </mxCell>
                <mxCell id="6IGV_KWASFzJ5lWBxESU-390" value="&lt;p style=&quot;line-height: 70%&quot;&gt;&lt;/p&gt;&lt;div style=&quot;font-size: 9px&quot;&gt;&amp;nbsp;use our App&lt;br&gt;from Google Play&lt;/div&gt;&lt;p&gt;&lt;/p&gt;" style="shape=display;whiteSpace=wrap;html=1;align=center;size=0.25;fillColor=#d5e8d4;strokeColor=#82b366;fontStyle=1" parent="1" vertex="1">
                    <mxGeometry x="720" y="785" width="100" height="50" as="geometry"/>
                </mxCell>
                <mxCell id="6IGV_KWASFzJ5lWBxESU-398" value="&lt;p style=&quot;line-height: 70%&quot;&gt;&lt;/p&gt;&lt;div style=&quot;font-size: 9px&quot;&gt;Please enter license ID in our App&lt;/div&gt;&lt;p&gt;&lt;/p&gt;" style="shape=display;whiteSpace=wrap;html=1;align=center;size=0.25;fillColor=#d5e8d4;strokeColor=#82b366;fontStyle=1" parent="1" vertex="1">
                    <mxGeometry x="720" y="705" width="100" height="50" as="geometry"/>
                </mxCell>
                <mxCell id="6IGV_KWASFzJ5lWBxESU-403" value="" style="rounded=0;whiteSpace=wrap;html=1;strokeWidth=2;" parent="1" vertex="1">
                    <mxGeometry x="840" y="360" width="300" height="150" as="geometry"/>
                </mxCell>
                <mxCell id="6IGV_KWASFzJ5lWBxESU-404" value="&lt;span style=&quot;font-size: 18px&quot;&gt;Property Estimator &lt;/span&gt;&lt;font style=&quot;font-size: 12px&quot;&gt;(user - manager)&lt;/font&gt;" style="text;strokeColor=none;fillColor=none;html=1;fontSize=24;fontStyle=1;verticalAlign=middle;align=left;" parent="1" vertex="1">
                    <mxGeometry x="847.5" y="355" width="345" height="40" as="geometry"/>
                </mxCell>
                <mxCell id="6IGV_KWASFzJ5lWBxESU-408" style="edgeStyle=none;rounded=0;orthogonalLoop=1;jettySize=auto;html=1;exitX=1;exitY=0.5;exitDx=0;exitDy=0;entryX=0;entryY=0.75;entryDx=0;entryDy=0;labelBackgroundColor=#CCE5FF;strokeColor=#000000;" parent="1" source="6IGV_KWASFzJ5lWBxESU-405" target="6IGV_KWASFzJ5lWBxESU-406" edge="1">
                    <mxGeometry relative="1" as="geometry"/>
                </mxCell>
                <mxCell id="6IGV_KWASFzJ5lWBxESU-405" value="start&amp;nbsp;" style="rounded=1;whiteSpace=wrap;html=1;fillColor=#fff2cc;strokeColor=#d6b656;" parent="1" vertex="1">
                    <mxGeometry x="855" y="470" width="70" height="25" as="geometry"/>
                </mxCell>
                <mxCell id="6IGV_KWASFzJ5lWBxESU-409" style="edgeStyle=none;rounded=0;orthogonalLoop=1;jettySize=auto;html=1;exitX=1;exitY=0.75;exitDx=0;exitDy=0;entryX=0;entryY=0.5;entryDx=0;entryDy=0;labelBackgroundColor=#CCE5FF;strokeColor=#000000;" parent="1" source="6IGV_KWASFzJ5lWBxESU-406" target="6IGV_KWASFzJ5lWBxESU-407" edge="1">
                    <mxGeometry relative="1" as="geometry"/>
                </mxCell>
                <mxCell id="6IGV_KWASFzJ5lWBxESU-406" value="&lt;font style=&quot;font-size: 10px&quot;&gt;&lt;br&gt;&lt;br&gt;Prop Info&lt;br&gt;&lt;/font&gt;" style="shape=manualInput;whiteSpace=wrap;html=1;fillColor=#e1d5e7;strokeColor=#9673a6;" parent="1" vertex="1">
                    <mxGeometry x="960" y="445" width="65" height="50" as="geometry"/>
                </mxCell>
                <mxCell id="6IGV_KWASFzJ5lWBxESU-407" value="&lt;font style=&quot;font-size: 10px&quot;&gt;ML Model&lt;/font&gt;" style="rounded=0;whiteSpace=wrap;html=1;fillColor=#dae8fc;strokeColor=#6c8ebf;" parent="1" vertex="1">
                    <mxGeometry x="1060" y="472.5" width="60" height="20" as="geometry"/>
                </mxCell>
                <mxCell id="YXn5XXbzYjiY600N0J2o-1" value="" style="rounded=0;whiteSpace=wrap;html=1;strokeWidth=2;" parent="1" vertex="1">
                    <mxGeometry x="120" y="860" width="280" height="290" as="geometry"/>
                </mxCell>
                <mxCell id="YXn5XXbzYjiY600N0J2o-2" value="&lt;font style=&quot;font-size: 18px&quot;&gt;Property Page&amp;nbsp;&lt;/font&gt;&lt;font style=&quot;font-size: 8px&quot;&gt;(user - manager as user)&lt;/font&gt;" style="text;strokeColor=none;fillColor=none;html=1;fontSize=24;fontStyle=1;verticalAlign=middle;align=left;" parent="1" vertex="1">
                    <mxGeometry x="128.13" y="860" width="342.5" height="40" as="geometry"/>
                </mxCell>
                <mxCell id="YXn5XXbzYjiY600N0J2o-10" style="edgeStyle=orthogonalEdgeStyle;rounded=0;orthogonalLoop=1;jettySize=auto;html=1;exitX=0.25;exitY=1;exitDx=0;exitDy=0;entryX=0;entryY=0.5;entryDx=0;entryDy=0;shape=link;" parent="1" source="YXn5XXbzYjiY600N0J2o-3" target="YXn5XXbzYjiY600N0J2o-4" edge="1">
                    <mxGeometry relative="1" as="geometry">
                        <Array as="points">
                            <mxPoint x="143" y="950"/>
                        </Array>
                    </mxGeometry>
                </mxCell>
                <mxCell id="YXn5XXbzYjiY600N0J2o-12" style="edgeStyle=orthogonalEdgeStyle;shape=link;rounded=0;orthogonalLoop=1;jettySize=auto;html=1;exitX=0.25;exitY=1;exitDx=0;exitDy=0;entryX=0;entryY=0.5;entryDx=0;entryDy=0;" parent="1" source="YXn5XXbzYjiY600N0J2o-3" target="YXn5XXbzYjiY600N0J2o-5" edge="1">
                    <mxGeometry relative="1" as="geometry"/>
                </mxCell>
                <mxCell id="YXn5XXbzYjiY600N0J2o-13" style="edgeStyle=orthogonalEdgeStyle;shape=link;rounded=0;orthogonalLoop=1;jettySize=auto;html=1;exitX=0.25;exitY=1;exitDx=0;exitDy=0;entryX=0;entryY=0.5;entryDx=0;entryDy=0;" parent="1" source="YXn5XXbzYjiY600N0J2o-3" target="YXn5XXbzYjiY600N0J2o-7" edge="1">
                    <mxGeometry relative="1" as="geometry"/>
                </mxCell>
                <mxCell id="YXn5XXbzYjiY600N0J2o-14" style="edgeStyle=orthogonalEdgeStyle;shape=link;rounded=0;orthogonalLoop=1;jettySize=auto;html=1;exitX=0.25;exitY=1;exitDx=0;exitDy=0;entryX=0;entryY=0.5;entryDx=0;entryDy=0;" parent="1" source="YXn5XXbzYjiY600N0J2o-3" target="YXn5XXbzYjiY600N0J2o-8" edge="1">
                    <mxGeometry relative="1" as="geometry"/>
                </mxCell>
                <mxCell id="YXn5XXbzYjiY600N0J2o-3" value="start&amp;nbsp;" style="rounded=1;whiteSpace=wrap;html=1;fillColor=#fff2cc;strokeColor=#d6b656;" parent="1" vertex="1">
                    <mxGeometry x="130" y="910" width="50" height="15" as="geometry"/>
                </mxCell>
                <mxCell id="YXn5XXbzYjiY600N0J2o-4" value="Show Images" style="ellipse;whiteSpace=wrap;html=1;fillColor=#e1d5e7;strokeColor=#9673a6;" parent="1" vertex="1">
                    <mxGeometry x="170" y="930" width="90" height="40" as="geometry"/>
                </mxCell>
                <mxCell id="YXn5XXbzYjiY600N0J2o-5" value="Add to fav" style="ellipse;whiteSpace=wrap;html=1;fillColor=#e1d5e7;strokeColor=#9673a6;" parent="1" vertex="1">
                    <mxGeometry x="170" y="980" width="90" height="40" as="geometry"/>
                </mxCell>
                <mxCell id="YXn5XXbzYjiY600N0J2o-7" value="Get agency info" style="ellipse;whiteSpace=wrap;html=1;fillColor=#e1d5e7;strokeColor=#9673a6;" parent="1" vertex="1">
                    <mxGeometry x="170" y="1030" width="90" height="40" as="geometry"/>
                </mxCell>
                <mxCell id="YXn5XXbzYjiY600N0J2o-8" value="Show in map" style="ellipse;whiteSpace=wrap;html=1;fillColor=#e1d5e7;strokeColor=#9673a6;" parent="1" vertex="1">
                    <mxGeometry x="170" y="1080" width="90" height="40" as="geometry"/>
                </mxCell>
                <mxCell id="OyvEmyEKFf86o9_L2irY-1" value="" style="rounded=0;whiteSpace=wrap;html=1;strokeWidth=2;" parent="1" vertex="1">
                    <mxGeometry x="120" y="1160" width="440" height="300" as="geometry"/>
                </mxCell>
                <mxCell id="OyvEmyEKFf86o9_L2irY-3" value="&lt;font style=&quot;font-size: 18px&quot;&gt;&quot;Sell your home&quot; Interface&amp;nbsp;&lt;/font&gt;&lt;font style=&quot;font-size: 8px&quot;&gt;(user)&lt;/font&gt;" style="text;strokeColor=none;fillColor=none;html=1;fontSize=24;fontStyle=1;verticalAlign=middle;align=left;" parent="1" vertex="1">
                    <mxGeometry x="128.13" y="1160" width="342.5" height="40" as="geometry"/>
                </mxCell>
                <mxCell id="OyvEmyEKFf86o9_L2irY-4" value="&lt;span style=&quot;font-size: 10px&quot;&gt;Show &quot;Sell&quot; Button&lt;/span&gt;" style="rounded=0;whiteSpace=wrap;html=1;fillColor=#dae8fc;strokeColor=#6c8ebf;" parent="1" vertex="1">
                    <mxGeometry x="269.38" y="635" width="60" height="30" as="geometry"/>
                </mxCell>
                <mxCell id="OyvEmyEKFf86o9_L2irY-7" style="edgeStyle=orthogonalEdgeStyle;rounded=0;orthogonalLoop=1;jettySize=auto;html=1;exitX=0.5;exitY=1;exitDx=0;exitDy=0;entryX=0.446;entryY=0.347;entryDx=0;entryDy=0;entryPerimeter=0;" parent="1" source="OyvEmyEKFf86o9_L2irY-5" target="OyvEmyEKFf86o9_L2irY-6" edge="1">
                    <mxGeometry relative="1" as="geometry"/>
                </mxCell>
                <mxCell id="OyvEmyEKFf86o9_L2irY-5" value="on click&lt;br&gt;&lt;font style=&quot;font-size: 5px&quot;&gt;&quot;sell Button&quot;&lt;/font&gt;" style="ellipse;whiteSpace=wrap;html=1;fillColor=#e1d5e7;strokeColor=#9673a6;" parent="1" vertex="1">
                    <mxGeometry x="130" y="1197.5" width="55" height="30" as="geometry"/>
                </mxCell>
                <mxCell id="OyvEmyEKFf86o9_L2irY-32" style="edgeStyle=orthogonalEdgeStyle;rounded=0;orthogonalLoop=1;jettySize=auto;html=1;exitX=0.5;exitY=1;exitDx=0;exitDy=0;entryX=0.5;entryY=0;entryDx=0;entryDy=0;" parent="1" source="OyvEmyEKFf86o9_L2irY-6" target="OyvEmyEKFf86o9_L2irY-30" edge="1">
                    <mxGeometry relative="1" as="geometry"/>
                </mxCell>
                <mxCell id="OyvEmyEKFf86o9_L2irY-6" value="&lt;font style=&quot;font-size: 10px&quot;&gt;&lt;br&gt;&lt;br&gt;Prop Info&lt;br&gt;&lt;/font&gt;" style="shape=manualInput;whiteSpace=wrap;html=1;fillColor=#e1d5e7;strokeColor=#9673a6;" parent="1" vertex="1">
                    <mxGeometry x="130" y="1227.5" width="65" height="50" as="geometry"/>
                </mxCell>
                <mxCell id="OyvEmyEKFf86o9_L2irY-13" style="edgeStyle=orthogonalEdgeStyle;rounded=0;orthogonalLoop=1;jettySize=auto;html=1;exitX=1;exitY=0.5;exitDx=0;exitDy=0;entryX=0;entryY=0.5;entryDx=0;entryDy=0;" parent="1" source="OyvEmyEKFf86o9_L2irY-14" target="OyvEmyEKFf86o9_L2irY-12" edge="1">
                    <mxGeometry relative="1" as="geometry"/>
                </mxCell>
                <mxCell id="OyvEmyEKFf86o9_L2irY-8" value="&lt;font style=&quot;font-size: 10px&quot;&gt;notify agency manager&lt;/font&gt;" style="rounded=0;whiteSpace=wrap;html=1;fillColor=#dae8fc;strokeColor=#6c8ebf;" parent="1" vertex="1">
                    <mxGeometry x="136.25" y="1400" width="47.5" height="50" as="geometry"/>
                </mxCell>
                <mxCell id="OyvEmyEKFf86o9_L2irY-11" style="edgeStyle=orthogonalEdgeStyle;rounded=0;orthogonalLoop=1;jettySize=auto;html=1;exitX=0.5;exitY=1;exitDx=0;exitDy=0;entryX=0.5;entryY=0;entryDx=0;entryDy=0;" parent="1" source="OyvEmyEKFf86o9_L2irY-9" target="OyvEmyEKFf86o9_L2irY-8" edge="1">
                    <mxGeometry relative="1" as="geometry"/>
                </mxCell>
                <mxCell id="OyvEmyEKFf86o9_L2irY-9" value="&lt;font style=&quot;font-size: 8px&quot;&gt;&lt;br&gt;&lt;br&gt;Select agency&lt;br&gt;&lt;/font&gt;" style="shape=manualInput;whiteSpace=wrap;html=1;fillColor=#e1d5e7;strokeColor=#9673a6;" parent="1" vertex="1">
                    <mxGeometry x="127.5" y="1330" width="65" height="50" as="geometry"/>
                </mxCell>
                <mxCell id="OyvEmyEKFf86o9_L2irY-19" style="edgeStyle=orthogonalEdgeStyle;rounded=0;orthogonalLoop=1;jettySize=auto;html=1;exitX=0.5;exitY=0;exitDx=0;exitDy=0;entryX=0.536;entryY=1.006;entryDx=0;entryDy=0;entryPerimeter=0;" parent="1" source="OyvEmyEKFf86o9_L2irY-12" target="OyvEmyEKFf86o9_L2irY-17" edge="1">
                    <mxGeometry relative="1" as="geometry"/>
                </mxCell>
                <mxCell id="OyvEmyEKFf86o9_L2irY-20" value="NO" style="edgeLabel;html=1;align=center;verticalAlign=middle;resizable=0;points=[];" parent="OyvEmyEKFf86o9_L2irY-19" vertex="1" connectable="0">
                    <mxGeometry x="-0.1493" y="-1" relative="1" as="geometry">
                        <mxPoint as="offset"/>
                    </mxGeometry>
                </mxCell>
                <mxCell id="Kj6rj2Db6WrMN_GVJZPS-4" style="edgeStyle=orthogonalEdgeStyle;rounded=0;orthogonalLoop=1;jettySize=auto;html=1;exitX=1;exitY=0.5;exitDx=0;exitDy=0;entryX=0.021;entryY=0.61;entryDx=0;entryDy=0;entryPerimeter=0;" parent="1" source="OyvEmyEKFf86o9_L2irY-12" target="OyvEmyEKFf86o9_L2irY-16" edge="1">
                    <mxGeometry relative="1" as="geometry">
                        <Array as="points">
                            <mxPoint x="384" y="1425"/>
                            <mxPoint x="384" y="1429"/>
                        </Array>
                    </mxGeometry>
                </mxCell>
                <mxCell id="Kj6rj2Db6WrMN_GVJZPS-6" value="YES" style="edgeLabel;html=1;align=center;verticalAlign=middle;resizable=0;points=[];" parent="Kj6rj2Db6WrMN_GVJZPS-4" vertex="1" connectable="0">
                    <mxGeometry x="0.0824" y="-2" relative="1" as="geometry">
                        <mxPoint x="1.79" y="-5.59" as="offset"/>
                    </mxGeometry>
                </mxCell>
                <mxCell id="OyvEmyEKFf86o9_L2irY-12" value="&lt;font style=&quot;font-size: 6px&quot;&gt;manager&lt;br&gt;approved&lt;/font&gt;" style="rhombus;whiteSpace=wrap;html=1;" parent="1" vertex="1">
                    <mxGeometry x="275" y="1400" width="50" height="50" as="geometry"/>
                </mxCell>
                <mxCell id="OyvEmyEKFf86o9_L2irY-14" value="&lt;font style=&quot;font-size: 10px&quot;&gt;jump to AD&lt;/font&gt;" style="rounded=0;whiteSpace=wrap;html=1;fillColor=#dae8fc;strokeColor=#6c8ebf;" parent="1" vertex="1">
                    <mxGeometry x="206.25" y="1410" width="47.5" height="30" as="geometry"/>
                </mxCell>
                <mxCell id="OyvEmyEKFf86o9_L2irY-15" style="edgeStyle=orthogonalEdgeStyle;rounded=0;orthogonalLoop=1;jettySize=auto;html=1;exitX=1;exitY=0.5;exitDx=0;exitDy=0;entryX=0;entryY=0.5;entryDx=0;entryDy=0;" parent="1" source="OyvEmyEKFf86o9_L2irY-8" target="OyvEmyEKFf86o9_L2irY-14" edge="1">
                    <mxGeometry relative="1" as="geometry">
                        <mxPoint x="186.25" y="1400" as="sourcePoint"/>
                        <mxPoint x="245" y="1400" as="targetPoint"/>
                    </mxGeometry>
                </mxCell>
                <mxCell id="OyvEmyEKFf86o9_L2irY-35" style="edgeStyle=orthogonalEdgeStyle;rounded=0;orthogonalLoop=1;jettySize=auto;html=1;exitX=0.5;exitY=0;exitDx=0;exitDy=0;entryX=0.5;entryY=1;entryDx=0;entryDy=0;" parent="1" source="OyvEmyEKFf86o9_L2irY-16" target="OyvEmyEKFf86o9_L2irY-34" edge="1">
                    <mxGeometry relative="1" as="geometry"/>
                </mxCell>
                <mxCell id="OyvEmyEKFf86o9_L2irY-16" value="add to agency props" style="rounded=0;whiteSpace=wrap;html=1;fillColor=#dae8fc;strokeColor=#6c8ebf;" parent="1" vertex="1">
                    <mxGeometry x="443.75" y="1395" width="50" height="55" as="geometry"/>
                </mxCell>
                <mxCell id="OyvEmyEKFf86o9_L2irY-24" style="edgeStyle=orthogonalEdgeStyle;rounded=0;orthogonalLoop=1;jettySize=auto;html=1;exitX=0.5;exitY=0;exitDx=0;exitDy=0;entryX=0.5;entryY=1;entryDx=0;entryDy=0;" parent="1" source="OyvEmyEKFf86o9_L2irY-17" target="OyvEmyEKFf86o9_L2irY-21" edge="1">
                    <mxGeometry relative="1" as="geometry"/>
                </mxCell>
                <mxCell id="OyvEmyEKFf86o9_L2irY-17" value="&lt;font style=&quot;font-size: 10px&quot;&gt;notify user&lt;/font&gt;" style="rounded=0;whiteSpace=wrap;html=1;fillColor=#dae8fc;strokeColor=#6c8ebf;" parent="1" vertex="1">
                    <mxGeometry x="273.13" y="1300" width="47.5" height="40" as="geometry"/>
                </mxCell>
                <mxCell id="OyvEmyEKFf86o9_L2irY-22" style="edgeStyle=orthogonalEdgeStyle;rounded=0;orthogonalLoop=1;jettySize=auto;html=1;exitX=0;exitY=0.5;exitDx=0;exitDy=0;entryX=0.992;entryY=0.587;entryDx=0;entryDy=0;entryPerimeter=0;" parent="1" source="OyvEmyEKFf86o9_L2irY-21" target="OyvEmyEKFf86o9_L2irY-9" edge="1">
                    <mxGeometry relative="1" as="geometry"/>
                </mxCell>
                <mxCell id="OyvEmyEKFf86o9_L2irY-23" value="YES" style="edgeLabel;html=1;align=center;verticalAlign=middle;resizable=0;points=[];" parent="OyvEmyEKFf86o9_L2irY-22" vertex="1" connectable="0">
                    <mxGeometry x="-0.798" relative="1" as="geometry">
                        <mxPoint as="offset"/>
                    </mxGeometry>
                </mxCell>
                <mxCell id="Kj6rj2Db6WrMN_GVJZPS-7" style="edgeStyle=orthogonalEdgeStyle;rounded=0;orthogonalLoop=1;jettySize=auto;html=1;exitX=1;exitY=0.5;exitDx=0;exitDy=0;entryX=0;entryY=0.5;entryDx=0;entryDy=0;" parent="1" source="OyvEmyEKFf86o9_L2irY-21" target="OyvEmyEKFf86o9_L2irY-25" edge="1">
                    <mxGeometry relative="1" as="geometry"/>
                </mxCell>
                <mxCell id="Kj6rj2Db6WrMN_GVJZPS-9" value="NO" style="edgeLabel;html=1;align=center;verticalAlign=middle;resizable=0;points=[];" parent="Kj6rj2Db6WrMN_GVJZPS-7" vertex="1" connectable="0">
                    <mxGeometry x="-0.2527" relative="1" as="geometry">
                        <mxPoint as="offset"/>
                    </mxGeometry>
                </mxCell>
                <mxCell id="OyvEmyEKFf86o9_L2irY-21" value="&lt;span style=&quot;font-size: 6px&quot;&gt;change the agency?&lt;/span&gt;" style="rhombus;whiteSpace=wrap;html=1;" parent="1" vertex="1">
                    <mxGeometry x="271.88" y="1220" width="50" height="50" as="geometry"/>
                </mxCell>
                <mxCell id="OyvEmyEKFf86o9_L2irY-25" value="&lt;font style=&quot;font-size: 10px&quot;&gt;Delete internal data after&lt;br&gt;a week&lt;/font&gt;" style="rounded=0;whiteSpace=wrap;html=1;fillColor=#dae8fc;strokeColor=#6c8ebf;" parent="1" vertex="1">
                    <mxGeometry x="367.5" y="1270" width="52.5" height="61.25" as="geometry"/>
                </mxCell>
                <mxCell id="OyvEmyEKFf86o9_L2irY-33" style="edgeStyle=orthogonalEdgeStyle;rounded=0;orthogonalLoop=1;jettySize=auto;html=1;exitX=0.5;exitY=1;exitDx=0;exitDy=0;entryX=0.522;entryY=0.266;entryDx=0;entryDy=0;entryPerimeter=0;" parent="1" source="OyvEmyEKFf86o9_L2irY-30" target="OyvEmyEKFf86o9_L2irY-9" edge="1">
                    <mxGeometry relative="1" as="geometry"/>
                </mxCell>
                <mxCell id="OyvEmyEKFf86o9_L2irY-30" value="&lt;font style=&quot;font-size: 10px&quot;&gt;intertnal storage&lt;/font&gt;" style="rounded=0;whiteSpace=wrap;html=1;fillColor=#dae8fc;strokeColor=#6c8ebf;" parent="1" vertex="1">
                    <mxGeometry x="132.5" y="1290" width="60" height="32.5" as="geometry"/>
                </mxCell>
                <mxCell id="Kj6rj2Db6WrMN_GVJZPS-2" style="edgeStyle=orthogonalEdgeStyle;rounded=0;orthogonalLoop=1;jettySize=auto;html=1;exitX=0.5;exitY=0;exitDx=0;exitDy=0;entryX=0.5;entryY=1;entryDx=0;entryDy=0;" parent="1" source="OyvEmyEKFf86o9_L2irY-34" target="Kj6rj2Db6WrMN_GVJZPS-1" edge="1">
                    <mxGeometry relative="1" as="geometry"/>
                </mxCell>
                <mxCell id="OyvEmyEKFf86o9_L2irY-34" value="&lt;font style=&quot;font-size: 10px&quot;&gt;Delete internal data&lt;/font&gt;" style="rounded=0;whiteSpace=wrap;html=1;fillColor=#dae8fc;strokeColor=#6c8ebf;" parent="1" vertex="1">
                    <mxGeometry x="442.5" y="1297.5" width="52.5" height="42.5" as="geometry"/>
                </mxCell>
                <mxCell id="OyvEmyEKFf86o9_L2irY-36" value="" style="rounded=0;whiteSpace=wrap;html=1;strokeWidth=2;" parent="1" vertex="1">
                    <mxGeometry x="1600" y="40" width="300" height="330" as="geometry"/>
                </mxCell>
                <mxCell id="OyvEmyEKFf86o9_L2irY-37" value="&lt;span style=&quot;font-size: 18px&quot;&gt;Chart KEYS&lt;/span&gt;" style="text;strokeColor=none;fillColor=none;html=1;fontSize=24;fontStyle=1;verticalAlign=middle;align=left;" parent="1" vertex="1">
                    <mxGeometry x="1607.5" y="40" width="345" height="40" as="geometry"/>
                </mxCell>
                <mxCell id="OyvEmyEKFf86o9_L2irY-38" value="&lt;font style=&quot;font-size: 10px&quot;&gt;&lt;br&gt;&lt;/font&gt;" style="shape=manualInput;whiteSpace=wrap;html=1;fillColor=#e1d5e7;strokeColor=#9673a6;" parent="1" vertex="1">
                    <mxGeometry x="1802.5" y="80" width="65" height="50" as="geometry"/>
                </mxCell>
                <mxCell id="OyvEmyEKFf86o9_L2irY-39" value="" style="rounded=0;whiteSpace=wrap;html=1;fillColor=#dae8fc;strokeColor=#6c8ebf;" parent="1" vertex="1">
                    <mxGeometry x="1805" y="155" width="60" height="20" as="geometry"/>
                </mxCell>
                <mxCell id="OyvEmyEKFf86o9_L2irY-40" value="" style="rounded=1;whiteSpace=wrap;html=1;fillColor=#fff2cc;strokeColor=#d6b656;" parent="1" vertex="1">
                    <mxGeometry x="1800" y="200" width="70" height="25" as="geometry"/>
                </mxCell>
                <mxCell id="OyvEmyEKFf86o9_L2irY-41" value="&lt;p style=&quot;line-height: 70%&quot;&gt;&lt;/p&gt;&lt;div style=&quot;font-size: 9px&quot;&gt;&lt;br&gt;&lt;/div&gt;&lt;p&gt;&lt;/p&gt;" style="shape=display;whiteSpace=wrap;html=1;align=center;size=0.25;fillColor=#d5e8d4;strokeColor=#82b366;fontStyle=1" parent="1" vertex="1">
                    <mxGeometry x="1785" y="260" width="100" height="50" as="geometry"/>
                </mxCell>
                <mxCell id="OyvEmyEKFf86o9_L2irY-42" value="&lt;span style=&quot;font-size: 13px&quot;&gt;Manual input by user&lt;/span&gt;" style="text;strokeColor=none;fillColor=none;html=1;fontSize=24;fontStyle=1;verticalAlign=middle;align=left;" parent="1" vertex="1">
                    <mxGeometry x="1655" y="90" width="160" height="40" as="geometry"/>
                </mxCell>
                <mxCell id="OyvEmyEKFf86o9_L2irY-43" value="&lt;span style=&quot;font-size: 13px&quot;&gt;Operation (function ...)&lt;/span&gt;" style="text;strokeColor=none;fillColor=none;html=1;fontSize=24;fontStyle=1;verticalAlign=middle;align=left;" parent="1" vertex="1">
                    <mxGeometry x="1650" y="140" width="160" height="40" as="geometry"/>
                </mxCell>
                <mxCell id="OyvEmyEKFf86o9_L2irY-44" value="&lt;span style=&quot;font-size: 13px&quot;&gt;State (non - functional)&lt;/span&gt;" style="text;strokeColor=none;fillColor=none;html=1;fontSize=24;fontStyle=1;verticalAlign=middle;align=left;" parent="1" vertex="1">
                    <mxGeometry x="1645" y="185" width="160" height="40" as="geometry"/>
                </mxCell>
                <mxCell id="OyvEmyEKFf86o9_L2irY-45" value="&lt;span style=&quot;font-size: 13px&quot;&gt;Output - (Display to user)&lt;/span&gt;" style="text;strokeColor=none;fillColor=none;html=1;fontSize=24;fontStyle=1;verticalAlign=middle;align=left;" parent="1" vertex="1">
                    <mxGeometry x="1620" y="260" width="160" height="40" as="geometry"/>
                </mxCell>
                <mxCell id="Kj6rj2Db6WrMN_GVJZPS-1" value="&lt;font style=&quot;font-size: 10px&quot;&gt;notify user&lt;/font&gt;" style="rounded=0;whiteSpace=wrap;html=1;fillColor=#dae8fc;strokeColor=#6c8ebf;" parent="1" vertex="1">
                    <mxGeometry x="446.25" y="1228.75" width="47.5" height="40" as="geometry"/>
                </mxCell>
                <mxCell id="2" style="edgeStyle=none;html=1;exitX=0.5;exitY=1;exitDx=0;exitDy=0;entryX=0.643;entryY=1;entryDx=0;entryDy=0;entryPerimeter=0;fontColor=#000000;" parent="1" source="6IGV_KWASFzJ5lWBxESU-146" target="6IGV_KWASFzJ5lWBxESU-146" edge="1">
                    <mxGeometry relative="1" as="geometry"/>
                </mxCell>
            </root>
        </mxGraphModel>
    </diagram>
</mxfile>